<svg width="27" height="27" viewBox="0 0 27 27" fill="none" xmlns="http://www.w3.org/2000/svg">
<path d="M13.022 2.68881C16.499 2.68881 16.9108 2.70204 18.284 2.76461C19.5536 2.8226 20.2432 3.03471 20.7021 3.21305C21.3098 3.44928 21.7436 3.73149 22.1993 4.18716C22.6551 4.64283 22.9372 5.07663 23.1734 5.68439C23.3518 6.14332 23.5639 6.83287 23.6219 8.10242C23.6844 9.47563 23.6977 9.88746 23.6977 13.3644C23.6977 16.8415 23.6844 17.2533 23.6219 18.6265C23.5639 19.8961 23.3518 20.5856 23.1734 21.0445C22.9372 21.6523 22.655 22.0861 22.1993 22.5418C21.7436 22.9975 21.3098 23.2797 20.7021 23.5158C20.2432 23.6942 19.5536 23.9064 18.284 23.9643C16.911 24.0269 16.4992 24.0402 13.022 24.0402C9.54474 24.0402 9.13292 24.0269 7.76001 23.9643C6.49036 23.9063 5.80091 23.6942 5.34198 23.5158C4.73422 23.2797 4.30032 22.9975 3.84465 22.5418C3.38898 22.086 3.10677 21.6523 2.87065 21.0445C2.69231 20.5857 2.48009 19.8961 2.4222 18.6265C2.35953 17.2533 2.34631 16.8415 2.34631 13.3644C2.34631 9.88746 2.35953 9.47563 2.4222 8.10252C2.48019 6.83287 2.69231 6.14332 2.87065 5.68439C3.10677 5.07663 3.38898 4.64283 3.84465 4.18716C4.30042 3.73139 4.73422 3.44928 5.34198 3.21305C5.80081 3.03471 6.49036 2.8226 7.76001 2.76461C9.13312 2.70204 9.54495 2.68881 13.022 2.68881ZM13.022 0.342407C9.48543 0.342407 9.04197 0.357362 7.65309 0.420743C6.26695 0.484022 5.32031 0.704176 4.49209 1.02606C3.63569 1.35884 2.90951 1.80413 2.18556 2.52807C1.46162 3.25202 1.01643 3.9782 0.683657 4.8345C0.361667 5.66282 0.141615 6.60946 0.0783357 7.9955C0.014955 9.38438 0 9.82784 0 13.3644C0 16.901 0.014955 17.3445 0.0783357 18.7334C0.141615 20.1195 0.361667 21.0662 0.683657 21.8944C1.01633 22.7507 1.46162 23.477 2.18556 24.2009C2.90951 24.9249 3.63569 25.37 4.49209 25.7028C5.32042 26.0248 6.26695 26.2449 7.65299 26.3081C9.04197 26.3715 9.48543 26.3865 13.022 26.3865C16.5586 26.3865 17.0021 26.3715 18.391 26.3081C19.777 26.2449 20.7236 26.0248 21.5519 25.7028C22.4083 25.3701 23.1345 24.9249 23.8584 24.2009C24.5823 23.477 25.0276 22.7508 25.3604 21.8944C25.6823 21.0661 25.9025 20.1195 25.9657 18.7335C26.0291 17.3445 26.0441 16.901 26.0441 13.3644C26.0441 9.82784 26.0291 9.38438 25.9657 7.9955C25.9025 6.60946 25.6823 5.66282 25.3604 4.8346C25.0276 3.9782 24.5823 3.25202 23.8584 2.52807C23.1345 1.80413 22.4083 1.35874 21.552 1.02606C20.7236 0.704176 19.777 0.484022 18.391 0.420743C17.0021 0.357362 16.5586 0.342407 13.022 0.342407ZM13.022 6.67742C9.32886 6.67742 6.33502 9.67147 6.33502 13.3644C6.33502 17.0576 9.32886 20.0515 13.022 20.0515C16.7151 20.0515 19.709 17.0576 19.709 13.3644C19.709 9.67137 16.7151 6.67742 13.022 6.67742ZM13.022 17.7052C10.6248 17.7052 8.68132 15.7617 8.68132 13.3644C8.68132 10.9672 10.6248 9.02373 13.022 9.02373C15.4193 9.02373 17.3627 10.9672 17.3627 13.3644C17.3627 15.7617 15.4193 17.7052 13.022 17.7052ZM21.5358 6.41322C21.5358 7.27633 20.8363 7.97586 19.9732 7.97586C19.1101 7.97586 18.4105 7.27633 18.4105 6.41322C18.4105 5.5502 19.1101 4.85057 19.9732 4.85057C20.8363 4.85057 21.5358 5.5502 21.5358 6.41322Z" fill="black"/>
</svg>
