<svg width="29" height="30" viewBox="0 0 29 30" fill="none" xmlns="http://www.w3.org/2000/svg">
<path d="M23.0775 6.54576C21.9805 5.43774 20.674 4.55922 19.234 3.96145C17.794 3.36367 16.2494 3.0586 14.6902 3.06404C8.15749 3.06404 2.83321 8.38832 2.83321 14.921C2.83321 17.0149 3.38358 19.0489 4.41254 20.8436L2.73749 26.9934L9.01895 25.3423C10.7538 26.2875 12.7041 26.79 14.6902 26.79C21.2229 26.79 26.5472 21.4657 26.5472 14.933C26.5472 11.7624 25.3149 8.78316 23.0775 6.54576ZM14.6902 24.7799C12.9194 24.7799 11.1846 24.3014 9.66504 23.404L9.3061 23.1886L5.57312 24.1697L6.56619 20.5325L6.32689 20.1616C5.34309 18.5906 4.82071 16.7747 4.81934 14.921C4.81934 9.48907 9.24628 5.06214 14.6782 5.06214C17.3105 5.06214 19.7872 6.0911 21.6417 7.95759C22.56 8.87165 23.2877 9.95888 23.7827 11.1563C24.2776 12.3536 24.53 13.6374 24.5252 14.933C24.5491 20.365 20.1222 24.7799 14.6902 24.7799ZM20.0983 17.4097C19.7991 17.2661 18.3394 16.5482 18.0762 16.4406C17.801 16.3448 17.6096 16.297 17.4062 16.5841C17.2028 16.8833 16.6405 17.5533 16.473 17.7447C16.3054 17.9481 16.126 17.972 15.8269 17.8165C15.5277 17.6729 14.5706 17.3499 13.4459 16.3448C12.5605 15.5552 11.9742 14.586 11.7948 14.2869C11.6273 13.9878 11.7708 13.8323 11.9264 13.6767C12.058 13.5451 12.2255 13.3297 12.3691 13.1622C12.5126 12.9947 12.5725 12.8631 12.6682 12.6717C12.7639 12.4683 12.716 12.3008 12.6442 12.1572C12.5725 12.0136 11.9742 10.5539 11.7349 9.9557C11.4956 9.38139 11.2444 9.45318 11.0649 9.44122H10.4906C10.2872 9.44122 9.97612 9.513 9.70094 9.81212C9.43771 10.1112 8.67197 10.8291 8.67197 12.2888C8.67197 13.7485 9.73683 15.1603 9.88041 15.3518C10.024 15.5552 11.9742 18.5463 14.9415 19.8266C15.6474 20.1376 16.1978 20.3171 16.6285 20.4487C17.3344 20.6761 17.9805 20.6402 18.495 20.5684C19.0693 20.4846 20.2538 19.8505 20.4931 19.1565C20.7443 18.4626 20.7443 17.8763 20.6606 17.7447C20.5768 17.6131 20.3974 17.5533 20.0983 17.4097Z" fill="black"/>
</svg>
