<svg width="36" height="36" viewBox="0 0 36 36" fill="none" xmlns="http://www.w3.org/2000/svg">
<path d="M33.3785 9.01695C32.2644 9.52337 31.0635 9.85615 29.8192 10.0153C31.0925 9.24846 32.0763 8.03307 32.5394 6.57171C31.3384 7.29515 30.0073 7.80156 28.6038 8.09094C27.4608 6.84662 25.8547 6.12317 24.0316 6.12317C20.6314 6.12317 17.8534 8.9012 17.8534 12.3303C17.8534 12.8223 17.9113 13.2998 18.0126 13.7483C12.8616 13.4879 8.27496 11.0137 5.22202 7.26621C4.68667 8.17776 4.38282 9.24846 4.38282 10.377C4.38282 12.5329 5.46799 14.4428 7.14639 15.528C6.11909 15.528 5.16415 15.2386 4.32495 14.8045V14.8479C4.32495 17.8575 6.46635 20.3751 9.30226 20.9393C8.39177 21.1885 7.4359 21.2232 6.50976 21.0406C6.90274 22.2741 7.67239 23.3534 8.7105 24.1268C9.74862 24.9001 11.003 25.3288 12.2973 25.3524C10.1033 27.0893 7.38367 28.0281 4.58539 28.0147C4.09345 28.0147 3.6015 27.9857 3.10956 27.9278C5.85865 29.693 9.12863 30.7203 12.6301 30.7203C24.0316 30.7203 30.2967 21.2577 30.2967 13.0538C30.2967 12.7789 30.2967 12.5184 30.2822 12.2435C31.4976 11.3754 32.5394 10.2758 33.3785 9.01695Z" fill="black"/>
</svg>
