
<svg width="33" height="22" viewBox="0 0 33 22" fill="none" xmlns="http://www.w3.org/2000/svg">
<path d="M20.1018 3.68647C20.1018 3.37653 20.2249 3.07928 20.444 2.86012C20.6632 2.64095 20.9605 2.51783 21.2704 2.51783H30.6195C30.9295 2.51783 31.2267 2.64095 31.4459 2.86012C31.6651 3.07928 31.7882 3.37653 31.7882 3.68647C31.7882 3.99642 31.6651 4.29367 31.4459 4.51283C31.2267 4.73199 30.9295 4.85512 30.6195 4.85512H21.2704C20.9605 4.85512 20.6632 4.73199 20.444 4.51283C20.2249 4.29367 20.1018 3.99642 20.1018 3.68647ZM32.9568 14.2043C32.9568 14.5142 32.8337 14.8115 32.6145 15.0306C32.3954 15.2498 32.0981 15.3729 31.7882 15.3729H21.4165C21.6779 16.3755 22.2641 17.2632 23.0833 17.8975C23.9026 18.5318 24.9089 18.8769 25.945 18.8788C26.559 18.8818 27.1675 18.7619 27.7345 18.526C28.3015 18.2902 28.8156 17.9433 29.2464 17.5057C29.4655 17.2871 29.7623 17.1644 30.0717 17.1644C30.3812 17.1644 30.678 17.2871 30.8971 17.5057C31.0071 17.6132 31.0945 17.7416 31.1541 17.8833C31.2138 18.025 31.2445 18.1773 31.2445 18.331C31.2445 18.4848 31.2138 18.6371 31.1541 18.7788C31.0945 18.9205 31.0071 19.0489 30.8971 19.1564C30.2501 19.8118 29.4789 20.3315 28.6286 20.6852C27.7782 21.0389 26.8659 21.2194 25.945 21.2161C24.5582 21.2161 23.2025 20.8049 22.0494 20.0344C20.8963 19.2639 19.9976 18.1688 19.4669 16.8876C18.9361 15.6063 18.7973 14.1965 19.0678 12.8363C19.3384 11.4762 20.0062 10.2268 20.9868 9.24613C21.9675 8.26551 23.2169 7.59769 24.577 7.32714C25.9372 7.05658 27.347 7.19544 28.6283 7.72615C29.9095 8.25686 31.0047 9.15559 31.7751 10.3087C32.5456 11.4618 32.9568 12.8175 32.9568 14.2043ZM30.4735 13.0356C30.216 12.0301 29.6312 11.1389 28.8113 10.5024C27.9914 9.86598 26.9829 9.52053 25.945 9.52053C24.907 9.52053 23.8986 9.86598 23.0786 10.5024C22.2587 11.1389 21.6739 12.0301 21.4165 13.0356H30.4735ZM17.1801 15.0808C17.1801 16.708 16.5337 18.2685 15.3831 19.4191C14.2325 20.5697 12.672 21.2161 11.0448 21.2161H1.40345C1.0935 21.2161 0.796253 21.093 0.57709 20.8738C0.357927 20.6547 0.234802 20.3574 0.234802 20.0475V1.34919C0.234802 1.03924 0.357927 0.741993 0.57709 0.52283C0.796253 0.303667 1.0935 0.180542 1.40345 0.180542H9.29179C10.3622 0.182043 11.4093 0.49297 12.307 1.07587C13.2047 1.65878 13.9148 2.4888 14.3517 3.46596C14.7885 4.44312 14.9336 5.52575 14.7693 6.58345C14.6051 7.64114 14.1385 8.62879 13.4259 9.42744C14.5384 9.89592 15.488 10.6822 16.1558 11.6878C16.8236 12.6934 17.1799 13.8736 17.1801 15.0808ZM2.57209 8.94537H9.29179C10.1441 8.94537 10.9616 8.60678 11.5643 8.00408C12.167 7.40138 12.5056 6.58395 12.5056 5.7316C12.5056 4.87926 12.167 4.06182 11.5643 3.45912C10.9616 2.85642 10.1441 2.51783 9.29179 2.51783H2.57209V8.94537ZM14.8429 15.0808C14.839 14.0746 14.4376 13.1108 13.7262 12.3993C13.0147 11.6879 12.0509 11.2865 11.0448 11.2827H2.57209V18.8788H11.0448C12.0509 18.875 13.0147 18.4736 13.7262 17.7622C14.4376 17.0507 14.839 16.0869 14.8429 15.0808Z" fill="black"/>
</svg>
