<svg width="32" height="32" viewBox="0 0 32 32" fill="none" xmlns="http://www.w3.org/2000/svg">
<path d="M31 16C31.0025 17.9757 30.6135 19.9324 29.8554 21.7569C29.0973 23.5814 27.9852 25.2376 26.5833 26.6298C25.1928 28.0178 23.5425 29.1182 21.7265 29.868C19.9106 30.6179 17.9647 31.0026 16 31C7.71551 31 1.00001 24.2845 1.00001 16C0.994769 12.1538 2.47217 8.45363 5.12501 5.66876C6.52477 4.19171 8.2112 3.01582 10.0811 2.21305C11.951 1.41028 13.9651 0.997513 16 1.00001C17.9647 0.997468 19.9106 1.38212 21.7265 2.132C23.5425 2.88187 25.1928 3.98225 26.5833 5.37026C27.9852 6.76243 29.0973 8.41862 29.8554 10.2431C30.6135 12.0676 31.0025 14.0243 31 16Z" stroke="black" stroke-width="2" stroke-linecap="round" stroke-linejoin="round"/>
<path d="M31 16C28.8115 16 22.774 15.175 17.3703 17.5473C11.5 20.125 7.24978 24.1233 5.39728 26.6103" stroke="black" stroke-width="2" stroke-linecap="round" stroke-linejoin="round"/>
<path d="M10.375 2.09045C12.7225 4.2572 17.845 9.77345 19.75 15.25C21.655 20.7265 22.36 27.46 22.795 29.3762" stroke="black" stroke-width="2" stroke-linecap="round" stroke-linejoin="round"/>
<path d="M1.11554 14.125C3.94904 14.296 11.4498 14.4498 16.2498 12.4C21.0498 10.3503 25.18 6.58004 26.5968 5.38379M2.12504 21.7098C3.44677 24.9092 5.83057 27.5555 8.87504 29.203" stroke="black" stroke-width="2" stroke-linecap="round" stroke-linejoin="round"/>
<path d="M1.00001 16C0.994769 12.1538 2.47217 8.45363 5.12501 5.66876C6.52477 4.19171 8.2112 3.01582 10.0811 2.21305C11.951 1.41028 13.9651 0.997511 16 1.00001M22 2.24801C23.7082 2.99542 25.2624 4.05419 26.5833 5.37026C27.9852 6.76243 29.0973 8.41862 29.8554 10.2431C30.6135 12.0676 31.0025 14.0243 31 16C31 17.8465 30.6663 19.6158 30.055 21.25M16 31C17.9647 31.0026 19.9106 30.6179 21.7265 29.868C23.5425 29.1182 25.1928 28.0178 26.5833 26.6298" stroke="black" stroke-width="2" stroke-linecap="round" stroke-linejoin="round"/>
</svg>
