<svg width="61" height="91" viewBox="0 0 61 91" fill="none" xmlns="http://www.w3.org/2000/svg">
<g filter="url(#filter0_d_34_34)">
<path d="M47.7182 73.6759C48.5727 72.7932 49 71.748 49 70.5404C49 69.3352 48.5727 68.2912 47.7182 67.4084L22.6813 41.5441L47.8037 15.5916C48.6012 14.7677 49 13.7378 49 12.502C49 11.2661 48.5727 10.2069 47.7182 9.32411C46.8637 8.44137 45.852 8 44.683 8C43.5164 8 42.5058 8.44137 41.6513 9.32411L12.94 39.0725C12.5982 39.4256 12.3555 39.8081 12.2119 40.22C12.0706 40.632 12 41.0733 12 41.5441C12 42.0149 12.0706 42.4563 12.2119 42.8682C12.3555 43.2802 12.5982 43.6627 12.94 44.0158L41.7367 73.7642C42.5343 74.5881 43.5164 75 44.683 75C45.852 75 46.8637 74.5586 47.7182 73.6759Z" fill="#FF0000"/>
</g>
<defs>
<filter id="filter0_d_34_34" x="0" y="0" width="61" height="91" filterUnits="userSpaceOnUse" color-interpolation-filters="sRGB">
<feFlood flood-opacity="0" result="BackgroundImageFix"/>
<feColorMatrix in="SourceAlpha" type="matrix" values="0 0 0 0 0 0 0 0 0 0 0 0 0 0 0 0 0 0 127 0" result="hardAlpha"/>
<feOffset dy="4"/>
<feGaussianBlur stdDeviation="6"/>
<feComposite in2="hardAlpha" operator="out"/>
<feColorMatrix type="matrix" values="0 0 0 0 0 0 0 0 0 0 0 0 0 0 0 0 0 0 0.25 0"/>
<feBlend mode="normal" in2="BackgroundImageFix" result="effect1_dropShadow_34_34"/>
<feBlend mode="normal" in="SourceGraphic" in2="effect1_dropShadow_34_34" result="shape"/>
</filter>
</defs>
</svg>
