<svg width="62" height="81" viewBox="0 0 62 81" fill="none" xmlns="http://www.w3.org/2000/svg">
<g filter="url(#filter0_d_34_33)">
<path d="M14.1313 71.2125C13.2875 70.3688 12.8656 69.3698 12.8656 68.2155C12.8656 67.0635 13.2875 66.0656 14.1313 65.2219L38.8531 40.5L14.0469 15.6938C13.2594 14.9063 12.8656 13.9219 12.8656 12.7406C12.8656 11.5594 13.2875 10.5469 14.1313 9.70312C14.975 8.85938 15.974 8.4375 17.1283 8.4375C18.2803 8.4375 19.2781 8.85938 20.1219 9.70312L48.4719 38.1375C48.8094 38.475 49.049 38.8406 49.1908 39.2344C49.3303 39.6281 49.4 40.05 49.4 40.5C49.4 40.95 49.3303 41.3719 49.1908 41.7656C49.049 42.1594 48.8094 42.525 48.4719 42.8625L20.0375 71.2969C19.25 72.0844 18.2803 72.4781 17.1283 72.4781C15.974 72.4781 14.975 72.0563 14.1313 71.2125Z" fill="#FF0000"/>
</g>
<defs>
<filter id="filter0_d_34_33" x="0.865631" y="0.4375" width="60.5344" height="88.0406" filterUnits="userSpaceOnUse" color-interpolation-filters="sRGB">
<feFlood flood-opacity="0" result="BackgroundImageFix"/>
<feColorMatrix in="SourceAlpha" type="matrix" values="0 0 0 0 0 0 0 0 0 0 0 0 0 0 0 0 0 0 127 0" result="hardAlpha"/>
<feOffset dy="4"/>
<feGaussianBlur stdDeviation="6"/>
<feComposite in2="hardAlpha" operator="out"/>
<feColorMatrix type="matrix" values="0 0 0 0 0 0 0 0 0 0 0 0 0 0 0 0 0 0 0.25 0"/>
<feBlend mode="normal" in2="BackgroundImageFix" result="effect1_dropShadow_34_33"/>
<feBlend mode="normal" in="SourceGraphic" in2="effect1_dropShadow_34_33" result="shape"/>
</filter>
</defs>
</svg>
