<svg width="110" height="2841" viewBox="0 0 110 2841" fill="none" xmlns="http://www.w3.org/2000/svg">
<path d="M99.5001 84.3L100.305 84.8939L99.5001 84.3ZM74.1501 100.95L73.1501 100.95L73.1501 102.234L74.3948 101.92L74.1501 100.95ZM74.1501 82.95L73.7759 82.0227L73.1501 82.2752L73.1501 82.95L74.1501 82.95ZM87.8001 71.55L86.9631 71.0027L86.9584 71.01L87.8001 71.55ZM88.2501 35.1L89.1133 34.5951L89.1091 34.5879L88.2501 35.1ZM75.0501 22.8L75.5159 21.915L75.5036 21.9087L75.0501 22.8ZM34.1001 22.95L34.5595 23.8382L34.5596 23.8382L34.1001 22.95ZM20.7501 35.55L19.8829 35.0521L19.8774 35.0616L19.8722 35.0711L20.7501 35.55ZM24.3501 77.25L23.5908 77.9008L23.5968 77.9077L24.3501 77.25ZM46.8501 88.65L46.7145 89.6408L47.8501 89.7962L47.8501 88.65L46.8501 88.65ZM46.8501 49.8L46.8501 48.8L45.8501 48.8L45.8501 49.8L46.8501 49.8ZM59.4501 49.8L60.4501 49.8L60.4501 48.8L59.4501 48.8L59.4501 49.8ZM59.4501 103.05L59.4501 104.05L60.4501 104.05L60.4501 103.05L59.4501 103.05ZM43.1001 103.05L42.9481 104.038L43.0236 104.05L43.1001 104.05L43.1001 103.05ZM21.8001 94.65L22.3666 93.8259L22.3639 93.824L21.8001 94.65ZM6.65011 77.4L7.53451 76.9332L7.53178 76.9281L6.65011 77.4ZM7.85013 25.65L8.71429 26.1532L7.85013 25.65ZM26.9001 7.34999L26.4357 6.46436L26.4312 6.46674L26.9001 7.34999ZM82.8501 7.35L82.3812 8.23327L82.3857 8.23562L82.8501 7.35ZM101.9 25.5L101.034 25.9997L101.036 26.0032L101.9 25.5ZM107.8 52.8C107.8 65.2316 104.744 75.5113 98.6956 83.7062L100.305 84.8939C106.656 76.2887 109.8 65.5684 109.8 52.8L107.8 52.8ZM98.6956 83.7062C92.6413 91.9087 84.3948 97.3336 73.9055 99.9804L74.3948 101.92C85.3055 99.1664 93.959 93.4913 100.305 84.8939L98.6956 83.7062ZM75.1501 100.95L75.1501 82.95L73.1501 82.95L73.1501 100.95L75.1501 100.95ZM74.5243 83.8774C80.4215 81.4978 85.1328 77.5599 88.6418 72.09L86.9584 71.01C83.6674 76.1401 79.2788 79.8022 73.7759 82.0227L74.5243 83.8774ZM88.6371 72.0972C92.1595 66.71 93.9001 60.3128 93.9001 52.95L91.9001 52.95C91.9001 59.9872 90.2407 65.99 86.9632 71.0028L88.6371 72.0972ZM93.9001 52.95C93.9001 46.1863 92.3096 40.0597 89.1133 34.5951L87.3869 35.6049C90.3906 40.7403 91.9001 46.5137 91.9001 52.95L93.9001 52.95ZM89.1091 34.5879C85.9087 29.2196 81.3679 24.9951 75.5159 21.9151L74.5844 23.6849C80.1324 26.6049 84.3915 30.5804 87.3912 35.6121L89.1091 34.5879ZM75.5036 21.9087C69.6372 18.9241 62.7759 17.45 54.9501 17.45L54.9501 19.45C62.5243 19.45 69.063 20.8759 74.5967 23.6913L75.5036 21.9087ZM54.9501 17.45C46.728 17.45 39.6128 18.9728 33.6407 22.0618L34.5596 23.8382C40.1874 20.9272 46.9723 19.45 54.9501 19.45L54.9501 17.45ZM33.6407 22.0618C27.6788 25.1455 23.0833 29.4772 19.8829 35.0521L21.6174 36.0479C24.617 30.8228 28.9214 26.7545 34.5595 23.8382L33.6407 22.0618ZM19.8722 35.0711C16.7809 40.7387 15.2501 47.2579 15.2501 54.6L17.2501 54.6C17.2501 47.5421 18.7194 41.3613 21.628 36.0288L19.8722 35.0711ZM15.2501 54.6C15.2501 63.623 18.0256 71.408 23.5909 77.9008L25.1094 76.5992C19.8746 70.492 17.2501 63.177 17.2501 54.6L15.2501 54.6ZM23.5968 77.9077C29.2788 84.4162 37.0125 88.3131 46.7145 89.6408L46.9857 87.6592C37.6878 86.3869 30.4214 82.6838 25.1034 76.5923L23.5968 77.9077ZM47.8501 88.65L47.8501 49.8L45.8501 49.8L45.8501 88.65L47.8501 88.65ZM46.8501 50.8L59.4501 50.8L59.4501 48.8L46.8501 48.8L46.8501 50.8ZM58.4501 49.8L58.4501 103.05L60.4501 103.05L60.4501 49.8L58.4501 49.8ZM59.4501 102.05L43.1001 102.05L43.1001 104.05L59.4501 104.05L59.4501 102.05ZM43.2522 102.062C35.5985 100.884 28.6406 98.1393 22.3666 93.826L21.2336 95.474C27.7597 99.9607 35.0018 102.816 42.9481 104.038L43.2522 102.062ZM22.3639 93.824C16.2074 89.622 11.2637 83.9992 7.5345 76.9332L5.76573 77.8668C9.6365 85.2008 14.7928 91.078 21.2364 95.4759L22.3639 93.824ZM7.53178 76.9281C3.81993 69.9928 1.95012 62.009 1.95012 52.95L-0.0498836 52.95C-0.049884 62.291 1.88031 70.6072 5.76846 77.8719L7.53178 76.9281ZM1.95012 52.95C1.95012 42.8039 4.21409 33.8818 8.71429 26.1532L6.98595 25.1468C2.28615 33.2182 -0.0498831 42.4961 -0.0498836 52.95L1.95012 52.95ZM8.71429 26.1532C13.2202 18.4148 19.4331 12.4462 27.369 8.23325L26.4312 6.46674C18.1672 10.8538 11.68 17.0852 6.98595 25.1468L8.71429 26.1532ZM27.3645 8.23561C35.403 4.0203 44.59 1.9 54.9501 1.9L54.9501 -0.100004C44.3102 -0.100005 34.7972 2.07969 26.4357 6.46437L27.3645 8.23561ZM54.9501 1.9C65.3105 1.9 74.4454 4.02039 82.3812 8.23325L83.319 6.46674C75.0549 2.07961 65.5897 -0.100004 54.9501 -0.100004L54.9501 1.9ZM82.3857 8.23562C90.4229 12.4503 96.6314 18.3686 101.034 25.9997L102.766 25.0003C98.1689 17.0314 91.6773 10.8497 83.3145 6.46438L82.3857 8.23562ZM101.036 26.0032C105.536 33.7318 107.8 42.6539 107.8 52.8L109.8 52.8C109.8 42.3461 107.464 33.0682 102.764 24.9968L101.036 26.0032ZM2.00011 176.016L1.47065 175.167L1.00011 175.461L1.00011 176.016L2.00011 176.016ZM44.3001 149.616L44.8296 150.464L45.3001 150.17L45.3001 149.616L44.3001 149.616ZM44.3001 137.466L45.3001 137.466L45.3001 136.466L44.3001 136.466L44.3001 137.466ZM2.00012 137.466L1.00012 137.466L1.00012 138.466L2.00012 138.466L2.00012 137.466ZM2.00012 120.366L2.00012 119.366L1.00012 119.366L1.00012 120.366L2.00012 120.366ZM107.9 120.366L108.9 120.366L108.9 119.366L107.9 119.366L107.9 120.366ZM99.0501 185.166L98.3257 184.476L98.3202 184.482L99.0501 185.166ZM55.2501 187.566L55.9136 186.817L55.9056 186.81L55.2501 187.566ZM45.0501 167.466L46.0359 167.298L45.7814 165.804L44.5083 166.625L45.0501 167.466ZM2.00011 195.216L1.00011 195.216L1.00011 197.05L2.54191 196.056L2.00011 195.216ZM56.4501 137.466L56.4501 136.466L55.4501 136.466L55.4501 137.466L56.4501 137.466ZM88.2501 171.966L87.543 171.259L87.5323 171.269L87.5219 171.28L88.2501 171.966ZM93.2001 137.466L94.2001 137.466L94.2001 136.466L93.2001 136.466L93.2001 137.466ZM2.52958 176.864L44.8296 150.464L43.7707 148.767L1.47065 175.167L2.52958 176.864ZM45.3001 149.616L45.3001 137.466L43.3001 137.466L43.3001 149.616L45.3001 149.616ZM44.3001 136.466L2.00012 136.466L2.00012 138.466L44.3001 138.466L44.3001 136.466ZM3.00012 137.466L3.00012 120.366L1.00012 120.366L1.00012 137.466L3.00012 137.466ZM2.00012 121.366L107.9 121.366L107.9 119.366L2.00012 119.366L2.00012 121.366ZM106.9 120.366L106.9 157.716L108.9 157.716L108.9 120.366L106.9 120.366ZM106.9 157.716C106.9 169.666 103.987 178.527 98.3257 184.476L99.7745 185.855C105.913 179.404 108.9 169.966 108.9 157.716L106.9 157.716ZM98.3202 184.482C92.6337 190.554 85.1113 193.616 75.6501 193.616L75.6501 195.616C85.5889 195.616 93.6666 192.377 99.78 185.849L98.3202 184.482ZM75.6501 193.616C67.5502 193.616 60.9999 191.328 55.9136 186.817L54.5866 188.314C60.1003 193.203 67.1501 195.616 75.6501 195.616L75.6501 193.616ZM55.9056 186.81C50.8233 182.399 47.5078 175.933 46.0359 167.298L44.0643 167.634C45.5924 176.598 49.0769 183.532 54.5946 188.321L55.9056 186.81ZM44.5083 166.625L1.45832 194.375L2.54191 196.056L45.5919 168.306L44.5083 166.625ZM3.00011 195.216L3.00011 176.016L1.00011 176.016L1.00011 195.216L3.00011 195.216ZM55.4501 137.466L55.4501 156.366L57.4501 156.366L57.4501 137.466L55.4501 137.466ZM55.4501 156.366C55.4501 163.392 57.0003 168.848 60.2759 172.553C63.5723 176.282 68.4618 178.066 74.7501 178.066L74.7501 176.066C68.8384 176.066 64.5779 174.4 61.7743 171.228C58.95 168.034 57.4501 163.14 57.4501 156.366L55.4501 156.366ZM74.7501 178.066C80.7545 178.066 85.5454 176.298 88.9783 172.651L87.5219 171.28C84.5548 174.433 80.3458 176.066 74.7501 176.066L74.7501 178.066ZM88.9572 172.673C92.5229 169.107 94.2001 163.595 94.2001 156.366L92.2001 156.366C92.2001 163.336 90.5774 168.224 87.543 171.259L88.9572 172.673ZM94.2001 156.366L94.2001 137.466L92.2001 137.466L92.2001 156.366L94.2001 156.366ZM93.2001 136.466L56.4501 136.466L56.4501 138.466L93.2001 138.466L93.2001 136.466ZM24.9501 273.164L25.2829 274.107L25.9501 273.872L25.9501 273.164L24.9501 273.164ZM24.9501 228.464L25.9501 228.464L25.9501 227.757L25.2829 227.521L24.9501 228.464ZM2.00011 220.364L1.00011 220.364L1.00011 221.072L1.66729 221.307L2.00011 220.364ZM2.00011 202.064L2.3505 201.127L1.00011 200.622L1.00011 202.064L2.00011 202.064ZM106.25 241.064L107.25 241.064L107.25 240.37L106.601 240.127L106.25 241.064ZM106.25 260.714L106.599 261.651L107.25 261.409L107.25 260.714L106.25 260.714ZM2.00011 299.564L1.00011 299.564L1.00011 301.004L2.34931 300.501L2.00011 299.564ZM2.00011 281.264L1.66728 280.321L1.00011 280.557L1.00011 281.264L2.00011 281.264ZM38.1501 268.364L37.1501 268.364L37.1501 269.78L38.4843 269.307L38.1501 268.364ZM87.6501 250.814L87.9843 251.757L90.6427 250.814L87.9843 249.872L87.6501 250.814ZM38.1501 233.264L38.4843 232.322L37.1501 231.849L37.1501 233.264L38.1501 233.264ZM25.9501 273.164L25.9501 228.464L23.9501 228.464L23.9501 273.164L25.9501 273.164ZM25.2829 227.521L2.33294 219.421L1.66729 221.307L24.6173 229.407L25.2829 227.521ZM3.00011 220.364L3.00011 202.064L1.00011 202.064L1.00011 220.364L3.00011 220.364ZM1.64973 203.001L105.9 242.001L106.601 240.127L2.3505 201.127L1.64973 203.001ZM105.25 241.064L105.25 260.714L107.25 260.714L107.25 241.064L105.25 241.064ZM105.901 259.777L1.65091 298.627L2.34931 300.501L106.599 261.651L105.901 259.777ZM3.00011 299.564L3.00011 281.264L1.00011 281.264L1.00011 299.564L3.00011 299.564ZM2.33293 282.207L25.2829 274.107L24.6173 272.221L1.66728 280.321L2.33293 282.207ZM38.4843 269.307L87.9843 251.757L87.316 249.872L37.816 267.422L38.4843 269.307ZM87.9843 249.872L38.4843 232.322L37.816 234.207L87.316 251.757L87.9843 249.872ZM37.1501 233.264L37.1501 268.364L39.1501 268.364L39.1501 233.264L37.1501 233.264ZM43.1001 329.36L44.1001 329.36L44.1001 328.36L43.1001 328.36L43.1001 329.36ZM2.00011 329.36L1.00011 329.36L1.00011 330.36L2.00011 330.36L2.00011 329.36ZM2.00011 312.26L2.00011 311.26L1.00011 311.26L1.00011 312.26L2.00011 312.26ZM107.9 312.26L108.9 312.26L108.9 311.26L107.9 311.26L107.9 312.26ZM99.2001 375.71L98.4754 375.021L98.4698 375.027L99.2001 375.71ZM51.6501 375.56L50.9085 376.231L50.9144 376.237L51.6501 375.56ZM89.0001 362.51L88.2822 361.814L88.2715 361.825L88.2612 361.836L89.0001 362.51ZM93.8001 329.36L94.8001 329.36L94.8001 328.36L93.8001 328.36L93.8001 329.36ZM57.0501 329.36L57.0501 328.36L56.0501 328.36L56.0501 329.36L57.0501 329.36ZM43.1001 328.36L2.00011 328.36L2.00011 330.36L43.1001 330.36L43.1001 328.36ZM3.00011 329.36L3.00011 312.26L1.00011 312.26L1.00011 329.36L3.00011 329.36ZM2.00011 313.26L107.9 313.26L107.9 311.26L2.00011 311.26L2.00011 313.26ZM106.9 312.26L106.9 348.26L108.9 348.26L108.9 312.26L106.9 312.26ZM106.9 348.26C106.9 360.318 104.033 369.176 98.4754 375.021L99.9248 376.399C105.967 370.044 108.9 360.602 108.9 348.26L106.9 348.26ZM98.4698 375.027C92.8946 380.987 85.2303 384.01 75.3501 384.01L75.3501 386.01C85.67 386.01 93.9056 382.834 99.9304 376.393L98.4698 375.027ZM75.3501 384.01C65.5784 384.01 57.9643 380.942 52.3858 374.883L50.9144 376.237C56.9359 382.778 65.1219 386.01 75.3501 386.01L75.3501 384.01ZM52.3916 374.889C46.9144 368.835 44.1001 360.012 44.1001 348.26L42.1001 348.26C42.1001 360.309 44.9858 369.685 50.9086 376.231L52.3916 374.889ZM44.1001 348.26L44.1001 329.36L42.1001 329.36L42.1001 348.26L44.1001 348.26ZM56.0501 346.46C56.0501 353.632 57.5983 359.197 60.8689 362.977C64.1634 366.785 69.0552 368.61 75.3501 368.61L75.3501 366.61C69.445 366.61 65.1868 364.911 62.3813 361.668C59.5519 358.398 58.0501 353.389 58.0501 346.46L56.0501 346.46ZM75.3501 368.61C81.541 368.61 86.3962 366.85 89.7391 363.184L88.2612 361.836C85.404 364.97 81.1592 366.61 75.3501 366.61L75.3501 368.61ZM89.718 363.206C93.1823 359.634 94.8001 353.969 94.8001 346.46L92.8001 346.46C92.8001 353.752 91.2179 358.787 88.2822 361.814L89.718 363.206ZM94.8001 346.46L94.8001 329.36L92.8001 329.36L92.8001 346.46L94.8001 346.46ZM93.8001 328.36L57.0501 328.36L57.0501 330.36L93.8001 330.36L93.8001 328.36ZM56.0501 329.36L56.0501 346.46L58.0501 346.46L58.0501 329.36L56.0501 329.36ZM107.9 484.154L107.9 485.154L108.9 485.154L108.9 484.154L107.9 484.154ZM2.0001 484.154L1.0001 484.154L1.0001 485.154L2.0001 485.154L2.0001 484.154ZM2.0001 466.904L2.0001 465.904L1.0001 465.904L1.0001 466.904L2.0001 466.904ZM49.5501 466.904L49.5501 467.904L50.5501 467.904L50.5501 466.904L49.5501 466.904ZM49.5501 417.104L50.5501 417.104L50.5501 416.104L49.5501 416.104L49.5501 417.104ZM2.0001 417.104L1.0001 417.104L1.0001 418.104L2.0001 418.104L2.0001 417.104ZM2.0001 400.004L2.0001 399.004L1.0001 399.004L1.0001 400.004L2.0001 400.004ZM107.9 400.004L108.9 400.004L108.9 399.004L107.9 399.004L107.9 400.004ZM107.9 417.104L107.9 418.104L108.9 418.104L108.9 417.104L107.9 417.104ZM63.5001 417.104L63.5001 416.104L62.5001 416.104L62.5001 417.104L63.5001 417.104ZM63.5001 466.904L62.5001 466.904L62.5001 467.904L63.5001 467.904L63.5001 466.904ZM107.9 466.904L108.9 466.904L108.9 465.904L107.9 465.904L107.9 466.904ZM107.9 483.154L2.0001 483.154L2.0001 485.154L107.9 485.154L107.9 483.154ZM3.0001 484.154L3.0001 466.904L1.0001 466.904L1.0001 484.154L3.0001 484.154ZM2.0001 467.904L49.5501 467.904L49.5501 465.904L2.0001 465.904L2.0001 467.904ZM50.5501 466.904L50.5501 417.104L48.5501 417.104L48.5501 466.904L50.5501 466.904ZM49.5501 416.104L2.0001 416.104L2.0001 418.104L49.5501 418.104L49.5501 416.104ZM3.0001 417.104L3.0001 400.004L1.0001 400.004L1.0001 417.104L3.0001 417.104ZM2.0001 401.004L107.9 401.004L107.9 399.004L2.0001 399.004L2.0001 401.004ZM106.9 400.004L106.9 417.104L108.9 417.104L108.9 400.004L106.9 400.004ZM107.9 416.104L63.5001 416.104L63.5001 418.104L107.9 418.104L107.9 416.104ZM62.5001 417.104L62.5001 466.904L64.5001 466.904L64.5001 417.104L62.5001 417.104ZM63.5001 467.904L107.9 467.904L107.9 465.904L63.5001 465.904L63.5001 467.904ZM106.9 466.904L106.9 484.154L108.9 484.154L108.9 466.904L106.9 466.904ZM107.9 521.987L107.9 522.987L108.9 522.987L108.9 521.987L107.9 521.987ZM2.0001 521.987L1.0001 521.987L1.0001 522.987L2.0001 522.987L2.0001 521.987ZM2.0001 504.887L2.0001 503.887L1.0001 503.887L1.0001 504.887L2.0001 504.887ZM107.9 504.887L108.9 504.887L108.9 503.887L107.9 503.887L107.9 504.887ZM107.9 520.987L2.0001 520.987L2.0001 522.987L107.9 522.987L107.9 520.987ZM3.0001 521.987L3.0001 504.887L1.0001 504.887L1.0001 521.987L3.0001 521.987ZM2.0001 505.887L107.9 505.887L107.9 503.887L2.0001 503.887L2.0001 505.887ZM106.9 504.887L106.9 521.987L108.9 521.987L108.9 504.887L106.9 504.887ZM99.0501 622.33L98.2568 621.721L99.0501 622.33ZM72.2001 639.73L71.2001 639.73L71.2001 641.03L72.4567 640.697L72.2001 639.73ZM72.2001 621.58L71.8362 620.649L71.2001 620.897L71.2001 621.58L72.2001 621.58ZM87.3501 609.58L86.5323 609.005L86.5262 609.013L86.5204 609.022L87.3501 609.58ZM88.4001 572.68L89.25 572.153L89.2452 572.145L88.4001 572.68ZM75.0501 560.98L75.4973 560.086L75.491 560.083L75.0501 560.98ZM34.8501 560.98L34.4154 560.08L34.406 560.084L34.3966 560.089L34.8501 560.98ZM21.6501 572.68L20.805 572.145L20.8002 572.153L21.6501 572.68ZM22.5501 609.58L21.7252 610.145L21.7274 610.148L22.5501 609.58ZM37.7001 621.58L38.7001 621.58L38.7001 620.901L38.0689 620.651L37.7001 621.58ZM37.7001 639.73L37.4435 640.697L38.7001 641.03L38.7001 639.73L37.7001 639.73ZM10.8501 622.33L10.0523 622.933L10.0568 622.939L10.8501 622.33ZM7.8501 563.38L6.99158 562.867L6.98673 562.875L7.8501 563.38ZM26.9001 545.53L26.4442 544.64L26.4398 544.642L26.9001 545.53ZM82.8501 545.53L82.3898 546.418L82.3942 546.42L82.8501 545.53ZM102.05 563.38L101.192 563.893L102.05 563.38ZM107.95 589.93C107.95 602.755 104.698 613.329 98.2568 621.721L99.8434 622.939C106.603 614.131 109.95 603.105 109.95 589.93L107.95 589.93ZM98.2568 621.721C91.8021 630.132 83.0478 635.815 71.9435 638.764L72.4567 640.697C83.9524 637.645 93.0981 631.728 99.8434 622.939L98.2568 621.721ZM73.2001 639.73L73.2001 621.58L71.2001 621.58L71.2001 639.73L73.2001 639.73ZM72.5639 622.512C79.1463 619.94 84.3618 615.814 88.1798 610.138L86.5204 609.022C82.9384 614.346 78.0539 618.22 71.8362 620.649L72.5639 622.512ZM88.1679 610.156C92.1082 604.556 94.0501 597.695 94.0501 589.63L92.0501 589.63C92.0501 597.365 90.192 603.804 86.5323 609.005L88.1679 610.156ZM94.0501 589.63C94.0501 583.158 92.4551 577.323 89.25 572.153L87.5502 573.207C90.5451 578.037 92.0501 583.502 92.0501 589.63L94.0501 589.63ZM89.2452 572.145C86.0366 567.074 81.4404 563.057 75.4973 560.086L74.6029 561.875C80.2598 564.703 84.5636 568.486 87.555 573.215L89.2452 572.145ZM75.491 560.083C69.6277 557.202 62.771 555.78 54.9501 555.78L54.9501 557.78C62.5292 557.78 69.0725 559.158 74.6092 561.878L75.491 560.083ZM54.9501 555.78C47.2264 555.78 40.3732 557.203 34.4154 560.08L35.2848 561.881C40.927 559.157 47.4738 557.78 54.9501 557.78L54.9501 555.78ZM34.3966 560.089C28.5534 563.062 24.0108 567.078 20.805 572.145L22.4952 573.215C25.4894 568.482 29.7468 564.698 35.3035 561.871L34.3966 560.089ZM20.8002 572.153C17.5951 577.323 16.0001 583.158 16.0001 589.63L18.0001 589.63C18.0001 583.502 19.5051 578.037 22.5 573.207L20.8002 572.153ZM16.0001 589.63C16.0001 597.689 17.8893 604.547 21.7252 610.145L23.375 609.015C19.8109 603.813 18.0001 597.371 18.0001 589.63L16.0001 589.63ZM21.7274 610.148C25.6413 615.813 30.8503 619.938 37.3313 622.51L38.0689 620.651C31.9499 618.222 27.0589 614.347 23.3728 609.012L21.7274 610.148ZM36.7001 621.58L36.7001 639.73L38.7001 639.73L38.7001 621.58L36.7001 621.58ZM37.9567 638.764C26.8523 635.815 18.0981 630.132 11.6434 621.721L10.0568 622.939C16.8021 631.728 25.9478 637.645 37.4435 640.697L37.9567 638.764ZM11.6479 621.727C5.30439 613.334 2.1001 602.758 2.1001 589.93L0.100102 589.93C0.100102 603.102 3.3958 614.126 10.0523 622.933L11.6479 621.727ZM2.1001 589.93C2.1001 580.085 4.31342 571.414 8.71348 563.885L6.98673 562.875C2.38677 570.747 0.100103 579.775 0.100102 589.93L2.1001 589.93ZM8.70858 563.893C13.2115 556.355 19.4224 550.534 27.3604 546.418L26.4398 544.642C18.1778 548.926 11.6887 555.005 6.99163 562.867L8.70858 563.893ZM27.356 546.42C35.3963 542.302 44.5863 540.23 54.9501 540.23L54.9501 538.23C44.3139 538.23 34.8039 540.358 26.4442 544.64L27.356 546.42ZM54.9501 540.23C65.3142 540.23 74.4521 542.302 82.3898 546.418L83.3104 544.642C75.0481 540.358 65.586 538.23 54.9501 538.23L54.9501 540.23ZM82.3942 546.42C90.4321 550.537 96.6905 556.358 101.192 563.893L102.909 562.867C98.2097 555.002 91.6681 548.923 83.306 544.64L82.3942 546.42ZM101.192 563.893C105.689 571.421 107.95 580.089 107.95 589.93L109.95 589.93C109.95 579.771 107.612 570.74 102.909 562.867L101.192 563.893ZM27.0501 776.248L27.532 775.371L27.5282 775.369L27.0501 776.248ZM8.60009 757.198L9.48593 756.734L9.48362 756.729L8.60009 757.198ZM2.00009 691.948L2.00009 690.948L1.00009 690.948L1.00009 691.948L2.00009 691.948ZM107.9 691.948L108.9 691.948L108.9 690.948L107.9 690.948L107.9 691.948ZM101.3 757.198L100.417 756.729L100.413 756.736L100.41 756.742L101.3 757.198ZM83.0001 776.248L82.522 775.369L82.5135 775.374L83.0001 776.248ZM27.3501 755.248L26.6325 755.944L27.3501 755.248ZM82.8501 755.248L83.5677 755.944L82.8501 755.248ZM92.7501 709.048L93.7501 709.048L93.7501 708.048L92.7501 708.048L92.7501 709.048ZM17.4501 709.048L17.4501 708.048L16.4501 708.048L16.4501 709.048L17.4501 709.048ZM55.1001 781.848C44.5395 781.848 35.3608 779.677 27.532 775.371L26.5682 777.124C34.7394 781.618 44.2607 783.848 55.1001 783.848L55.1001 781.848ZM27.5282 775.369C19.8118 771.169 13.7993 764.968 9.48591 756.734L7.71426 757.662C12.2009 766.227 18.4884 772.726 26.572 777.126L27.5282 775.369ZM9.48362 756.729C5.17602 748.604 3.00009 738.822 3.00009 727.348L1.00009 727.348C1.00009 739.073 3.22415 749.192 7.71657 757.666L9.48362 756.729ZM3.00009 727.348L3.00009 691.948L1.00009 691.948L1.00009 727.348L3.00009 727.348ZM2.00009 692.948L107.9 692.948L107.9 690.948L2.00009 690.948L2.00009 692.948ZM106.9 691.948L106.9 727.348L108.9 727.348L108.9 691.948L106.9 691.948ZM106.9 727.348C106.9 738.822 104.724 748.604 100.417 756.729L102.184 757.666C106.676 749.192 108.9 739.073 108.9 727.348L106.9 727.348ZM100.41 756.742C96.1969 764.972 90.2363 771.17 82.522 775.369L83.4782 777.126C91.5639 772.725 97.8033 766.223 102.19 757.653L100.41 756.742ZM82.5135 775.374C74.7874 779.677 65.6611 781.848 55.1001 781.848L55.1001 783.848C65.9391 783.848 75.4128 781.618 83.4867 777.121L82.5135 775.374ZM16.4501 725.998C16.4501 738.867 19.7967 748.901 26.6325 755.944L28.0677 754.551C21.7035 747.994 18.4501 738.528 18.4501 725.998L16.4501 725.998ZM26.6325 755.944C33.4664 762.985 43.003 766.448 55.1001 766.448L55.1001 764.448C43.3972 764.448 34.4338 761.11 28.0677 754.551L26.6325 755.944ZM55.1001 766.448C67.1972 766.448 76.7338 762.985 83.5677 755.944L82.1325 754.551C75.7664 761.11 66.803 764.448 55.1001 764.448L55.1001 766.448ZM83.5677 755.944C90.4035 748.901 93.7501 738.867 93.7501 725.998L91.7501 725.998C91.7501 738.528 88.4967 747.994 82.1325 754.551L83.5677 755.944ZM93.7501 725.998L93.7501 709.048L91.7501 709.048L91.7501 725.998L93.7501 725.998ZM92.7501 708.048L17.4501 708.048L17.4501 710.048L92.7501 710.048L92.7501 708.048ZM16.4501 709.048L16.4501 725.998L18.4501 725.998L18.4501 709.048L16.4501 709.048ZM94.1001 817.153L95.1001 817.153L95.1001 816.153L94.1001 816.153L94.1001 817.153ZM62.0001 817.153L62.0001 816.153L61.0001 816.153L61.0001 817.153L62.0001 817.153ZM62.0001 856.153L62.0001 857.153L63.0001 857.153L63.0001 856.153L62.0001 856.153ZM48.8001 856.153L47.8001 856.153L47.8001 857.153L48.8001 857.153L48.8001 856.153ZM48.8001 817.153L49.8001 817.153L49.8001 816.153L48.8001 816.153L48.8001 817.153ZM15.9501 817.153L15.9501 816.153L14.9501 816.153L14.9501 817.153L15.9501 817.153ZM15.9501 860.653L15.9501 861.653L16.9501 861.653L16.9501 860.653L15.9501 860.653ZM2.00008 860.653L1.00008 860.653L1.00008 861.653L2.00008 861.653L2.00008 860.653ZM2.00009 800.053L2.00009 799.053L1.00009 799.053L1.00009 800.053L2.00009 800.053ZM107.9 800.053L108.9 800.053L108.9 799.053L107.9 799.053L107.9 800.053ZM107.9 860.653L107.9 861.653L108.9 861.653L108.9 860.653L107.9 860.653ZM94.1001 860.653L93.1001 860.653L93.1001 861.653L94.1001 861.653L94.1001 860.653ZM94.1001 816.153L62.0001 816.153L62.0001 818.153L94.1001 818.153L94.1001 816.153ZM61.0001 817.153L61.0001 856.153L63.0001 856.153L63.0001 817.153L61.0001 817.153ZM62.0001 855.153L48.8001 855.153L48.8001 857.153L62.0001 857.153L62.0001 855.153ZM49.8001 856.153L49.8001 817.153L47.8001 817.153L47.8001 856.153L49.8001 856.153ZM48.8001 816.153L15.9501 816.153L15.9501 818.153L48.8001 818.153L48.8001 816.153ZM14.9501 817.153L14.9501 860.653L16.9501 860.653L16.9501 817.153L14.9501 817.153ZM15.9501 859.653L2.00008 859.653L2.00008 861.653L15.9501 861.653L15.9501 859.653ZM3.00008 860.653L3.00009 800.053L1.00009 800.053L1.00008 860.653L3.00008 860.653ZM2.00009 801.053L107.9 801.053L107.9 799.053L2.00009 799.053L2.00009 801.053ZM106.9 800.053L106.9 860.653L108.9 860.653L108.9 800.053L106.9 800.053ZM107.9 859.653L94.1001 859.653L94.1001 861.653L107.9 861.653L107.9 859.653ZM95.1001 860.653L95.1001 817.153L93.1001 817.153L93.1001 860.653L95.1001 860.653ZM15.6501 943.1L15.1561 943.97L15.1644 943.975L15.6501 943.1ZM5.00008 931.7L5.88387 931.232L5.00008 931.7ZM4.70008 893.6L3.79026 893.185L3.78724 893.192L3.78429 893.199L4.70008 893.6ZM15.5001 879.95L14.9057 879.146L15.5001 879.95ZM31.4001 874.1L32.4001 874.1L32.4001 873.014L31.317 873.104L31.4001 874.1ZM31.4001 892.4L31.5081 893.395L32.4001 893.298L32.4001 892.4L31.4001 892.4ZM19.5501 898.25L18.8325 897.554L18.8275 897.559L18.8225 897.564L19.5501 898.25ZM18.8001 924.2L19.5195 923.506L19.5134 923.5L19.5072 923.493L18.8001 924.2ZM38.9001 925.4L38.2569 924.635L38.2492 924.641L38.2416 924.648L38.9001 925.4ZM44.7501 917.6L45.6615 918.012L44.7501 917.6ZM49.5501 904.85L50.4989 905.167L50.503 905.154L49.5501 904.85ZM55.8501 888.65L54.96 888.195L54.9557 888.203L55.8501 888.65ZM95.7501 878L95.2044 878.838L95.7501 878ZM105.65 890L104.736 890.405L104.739 890.412L104.742 890.419L105.65 890ZM101.45 933.65L100.679 933.014L100.674 933.02L101.45 933.65ZM81.0501 944.6L80.0501 944.6L80.0501 945.713L81.1566 945.595L81.0501 944.6ZM81.0501 926.15L80.8777 925.165L80.0501 925.31L80.0501 926.15L81.0501 926.15ZM91.2501 920.45L90.5311 919.755L90.5193 919.768L90.508 919.78L91.2501 920.45ZM91.8501 896.45L91.0797 897.088L91.0861 897.096L91.0927 897.103L91.8501 896.45ZM72.3501 895.1L71.7099 894.332L71.7018 894.339L71.6939 894.346L72.3501 895.1ZM66.8001 902.6L65.8939 902.177L65.8855 902.195L65.8779 902.214L66.8001 902.6ZM62.1501 915.2L61.2032 914.879L61.1994 914.89L61.1959 914.901L62.1501 915.2ZM55.7001 931.55L54.8143 931.086L54.8077 931.099L54.8015 931.112L55.7001 931.55ZM46.4001 942.35L45.8226 941.534L45.8161 941.539L45.8096 941.543L46.4001 942.35ZM30.2001 945.85C25.1682 945.85 20.4856 944.643 16.1357 942.226L15.1644 943.975C19.8146 946.558 24.8319 947.85 30.2001 947.85L30.2001 945.85ZM16.1441 942.231C11.9319 939.838 8.50763 936.188 5.88387 931.232L4.11629 932.168C6.89254 937.412 10.5683 941.363 15.1561 943.97L16.1441 942.231ZM5.88387 931.232C3.27871 926.312 1.95008 920.232 1.95008 912.95L-0.0499212 912.95C-0.0499215 920.469 1.32146 926.889 4.11629 932.168L5.88387 931.232ZM1.95008 912.95C1.95008 905.867 3.17945 899.557 5.61587 894.002L3.78429 893.199C1.22072 899.044 -0.0499208 905.634 -0.0499212 912.95L1.95008 912.95ZM5.6099 894.015C8.14635 888.455 11.6437 884.044 16.0945 880.755L14.9057 879.146C10.1565 882.656 6.45382 887.346 3.79026 893.185L5.6099 894.015ZM16.0945 880.755C20.5372 877.471 25.658 875.582 31.4831 875.097L31.317 873.104C25.1422 873.618 19.663 875.63 14.9057 879.146L16.0945 880.755ZM30.4001 874.1L30.4001 892.4L32.4001 892.4L32.4001 874.1L30.4001 874.1ZM31.292 891.406C26.4544 891.932 22.2905 893.991 18.8325 897.554L20.2677 898.947C23.4096 895.71 27.1458 893.869 31.5081 893.395L31.292 891.406ZM18.8225 897.564C15.3128 901.287 13.6001 906.201 13.6001 912.2L15.6001 912.2C15.6001 906.6 17.1874 902.214 20.2777 898.936L18.8225 897.564ZM13.6001 912.2C13.6001 917.579 15.0522 921.867 18.093 924.908L19.5072 923.493C16.948 920.934 15.6001 917.221 15.6001 912.2L13.6001 912.2ZM18.0807 924.895C21.0874 928.009 24.9563 929.55 29.6001 929.55L29.6001 927.55C25.4439 927.55 22.1128 926.192 19.5195 923.506L18.0807 924.895ZM29.6001 929.55C33.5935 929.55 36.9426 928.442 39.5586 926.153L38.2416 924.648C36.0575 926.559 33.2067 927.55 29.6001 927.55L29.6001 929.55ZM39.5433 926.166C42.1629 923.966 44.2024 921.243 45.6615 918.012L43.8387 917.189C42.4978 920.158 40.6373 922.635 38.2569 924.635L39.5433 926.166ZM45.6615 918.012C47.0817 914.867 48.6941 910.581 50.4988 905.167L48.6014 904.534C46.8061 909.92 45.2185 914.134 43.8387 917.189L45.6615 918.012ZM50.503 905.154C52.5939 898.582 54.6758 893.235 56.7445 889.098L54.9557 888.203C52.8244 892.466 50.7062 897.919 48.5972 904.547L50.503 905.154ZM56.7401 889.106C58.7632 885.156 61.705 881.774 65.5871 878.96L64.4131 877.341C60.2951 880.326 57.137 883.944 54.96 888.195L56.7401 889.106ZM65.5871 878.96C69.3697 876.218 74.3948 874.8 80.7501 874.8L80.7501 872.8C74.1054 872.8 68.6305 874.283 64.4131 877.341L65.5871 878.96ZM80.7501 874.8C86.2786 874.8 91.0845 876.156 95.2044 878.838L96.2958 877.162C91.8157 874.245 86.6216 872.8 80.7501 872.8L80.7501 874.8ZM95.2044 878.838C99.3248 881.521 102.505 885.362 104.736 890.405L106.565 889.596C104.195 884.239 100.775 880.079 96.2958 877.162L95.2044 878.838ZM104.742 890.419C107.071 895.466 108.25 901.318 108.25 908L110.25 908C110.25 901.082 109.029 894.935 106.558 889.581L104.742 890.419ZM108.25 908C108.25 918.643 105.689 926.944 100.679 933.014L102.221 934.287C107.611 927.757 110.25 918.957 110.25 908L108.25 908ZM100.674 933.02C95.6449 939.209 89.0883 942.733 80.9435 943.606L81.1566 945.595C89.8119 944.667 96.8552 940.891 102.226 934.281L100.674 933.02ZM82.0501 944.6L82.0501 926.15L80.0501 926.15L80.0501 944.6L82.0501 944.6ZM81.2225 927.135C85.4489 926.396 89.0473 924.381 91.9922 921.121L90.508 919.78C87.8528 922.72 84.6513 924.505 80.8777 925.165L81.2225 927.135ZM91.9691 921.145C95.0945 917.912 96.6001 913.487 96.6001 908L94.6001 908C94.6001 913.114 93.2057 916.989 90.5311 919.755L91.9691 921.145ZM96.6001 908C96.6001 903.023 95.3006 898.921 92.6075 895.797L91.0927 897.103C93.3996 899.779 94.6001 903.377 94.6001 908L96.6001 908ZM92.6205 895.813C89.9886 892.633 86.1754 891.1 81.3501 891.1L81.3501 893.1C85.7248 893.1 88.9116 894.468 91.0797 897.088L92.6205 895.813ZM81.3501 891.1C77.5538 891.1 74.3165 892.16 71.7099 894.332L72.9903 895.869C75.1836 894.041 77.9464 893.1 81.3501 893.1L81.3501 891.1ZM71.6939 894.346C69.2794 896.445 67.3479 899.062 65.8939 902.177L67.7063 903.023C69.0522 900.139 70.8207 897.755 73.0063 895.855L71.6939 894.346ZM65.8779 902.214C64.565 905.344 63.0065 909.569 61.2032 914.879L63.097 915.522C64.8937 910.232 66.4352 906.056 67.7223 902.987L65.8779 902.214ZM61.1959 914.901C59.1061 921.569 56.9768 926.958 54.8143 931.086L56.5859 932.014C58.8233 927.743 60.9941 922.232 63.1043 915.499L61.1959 914.901ZM54.8015 931.112C52.7789 935.253 49.7926 938.726 45.8226 941.534L46.9775 943.167C51.2076 940.175 54.4213 936.448 56.5987 931.989L54.8015 931.112ZM45.8096 941.543C41.9282 944.383 36.755 945.85 30.2001 945.85L30.2001 947.85C37.0451 947.85 42.6719 946.317 46.9906 943.157L45.8096 941.543ZM107.9 981.069L107.9 982.069L108.9 982.069L108.9 981.069L107.9 981.069ZM2.00008 981.069L1.00008 981.069L1.00008 982.069L2.00008 982.069L2.00008 981.069ZM2.00008 963.969L2.00008 962.969L1.00008 962.969L1.00008 963.969L2.00008 963.969ZM107.9 963.969L108.9 963.969L108.9 962.969L107.9 962.969L107.9 963.969ZM107.9 980.069L2.00008 980.069L2.00008 982.069L107.9 982.069L107.9 980.069ZM3.00008 981.069L3.00008 963.969L1.00008 963.969L1.00008 981.069L3.00008 981.069ZM2.00008 964.969L107.9 964.969L107.9 962.969L2.00008 962.969L2.00008 964.969ZM106.9 963.969L106.9 981.069L108.9 981.069L108.9 963.969L106.9 963.969ZM99.5001 1081.71L100.305 1082.31L99.5001 1081.71ZM74.1501 1098.36L73.1501 1098.36L73.1501 1099.65L74.3947 1099.33L74.1501 1098.36ZM74.1501 1080.36L73.7759 1079.43L73.1501 1079.69L73.1501 1080.36L74.1501 1080.36ZM87.8001 1068.96L86.9631 1068.41L86.9584 1068.42L87.8001 1068.96ZM88.2501 1032.51L89.1133 1032.01L89.109 1032L88.2501 1032.51ZM75.0501 1020.21L75.5159 1019.33L75.5035 1019.32L75.0501 1020.21ZM34.1001 1020.36L34.5595 1021.25L34.5595 1021.25L34.1001 1020.36ZM20.7501 1032.96L19.8828 1032.46L19.8774 1032.47L19.8722 1032.48L20.7501 1032.96ZM24.3501 1074.66L23.5908 1075.31L23.5968 1075.32L24.3501 1074.66ZM46.8501 1086.06L46.7145 1087.05L47.8501 1087.21L47.8501 1086.06L46.8501 1086.06ZM46.8501 1047.21L46.8501 1046.21L45.8501 1046.21L45.8501 1047.21L46.8501 1047.21ZM59.4501 1047.21L60.4501 1047.21L60.4501 1046.21L59.4501 1046.21L59.4501 1047.21ZM59.4501 1100.46L59.4501 1101.46L60.4501 1101.46L60.4501 1100.46L59.4501 1100.46ZM43.1001 1100.46L42.948 1101.45L43.0236 1101.46L43.1001 1101.46L43.1001 1100.46ZM21.8001 1092.06L22.3666 1091.24L22.3638 1091.24L21.8001 1092.06ZM6.65007 1074.81L7.53447 1074.35L7.53174 1074.34L6.65007 1074.81ZM7.85008 1023.06L8.71425 1023.57L7.85008 1023.06ZM26.9001 1004.76L26.4357 1003.88L26.4312 1003.88L26.9001 1004.76ZM82.8501 1004.76L82.3812 1005.65L82.3857 1005.65L82.8501 1004.76ZM101.9 1022.91L101.034 1023.41L101.036 1023.42L101.9 1022.91ZM107.8 1050.21C107.8 1062.64 104.744 1072.92 98.6955 1081.12L100.305 1082.31C106.656 1073.7 109.8 1062.98 109.8 1050.21L107.8 1050.21ZM98.6955 1081.12C92.6412 1089.32 84.3947 1094.75 73.9054 1097.39L74.3947 1099.33C85.3054 1096.58 93.9589 1090.9 100.305 1082.31L98.6955 1081.12ZM75.1501 1098.36L75.1501 1080.36L73.1501 1080.36L73.1501 1098.36L75.1501 1098.36ZM74.5243 1081.29C80.4215 1078.91 85.1328 1074.97 88.6418 1069.5L86.9584 1068.42C83.6674 1073.55 79.2787 1077.21 73.7759 1079.43L74.5243 1081.29ZM88.637 1069.51C92.1595 1064.12 93.9001 1057.72 93.9001 1050.36L91.9001 1050.36C91.9001 1057.4 90.2407 1063.4 86.9631 1068.41L88.637 1069.51ZM93.9001 1050.36C93.9001 1043.6 92.3096 1037.47 89.1133 1032.01L87.3869 1033.02C90.3906 1038.15 91.9001 1043.93 91.9001 1050.36L93.9001 1050.36ZM89.109 1032C85.9087 1026.63 81.3679 1022.41 75.5158 1019.33L74.5843 1021.1C80.1323 1024.02 84.3915 1027.99 87.3911 1033.02L89.109 1032ZM75.5035 1019.32C69.6372 1016.34 62.7759 1014.86 54.9501 1014.86L54.9501 1016.86C62.5243 1016.86 69.063 1018.29 74.5966 1021.1L75.5035 1019.32ZM54.9501 1014.86C46.7279 1014.86 39.6128 1016.38 33.6407 1019.47L34.5595 1021.25C40.1874 1018.34 46.9722 1016.86 54.9501 1016.86L54.9501 1014.86ZM33.6407 1019.47C27.6788 1022.56 23.0832 1026.89 19.8828 1032.46L21.6173 1033.46C24.6169 1028.23 28.9214 1024.17 34.5595 1021.25L33.6407 1019.47ZM19.8722 1032.48C16.7808 1038.15 15.2501 1044.67 15.2501 1052.01L17.2501 1052.01C17.2501 1044.95 18.7194 1038.77 21.628 1033.44L19.8722 1032.48ZM15.2501 1052.01C15.2501 1061.04 18.0256 1068.82 23.5908 1075.31L25.1093 1074.01C19.8746 1067.9 17.2501 1060.59 17.2501 1052.01L15.2501 1052.01ZM23.5968 1075.32C29.2788 1081.83 37.0124 1085.73 46.7145 1087.05L46.9857 1085.07C37.6877 1083.8 30.4214 1080.1 25.1034 1074L23.5968 1075.32ZM47.8501 1086.06L47.8501 1047.21L45.8501 1047.21L45.8501 1086.06L47.8501 1086.06ZM46.8501 1048.21L59.4501 1048.21L59.4501 1046.21L46.8501 1046.21L46.8501 1048.21ZM58.4501 1047.21L58.4501 1100.46L60.4501 1100.46L60.4501 1047.21L58.4501 1047.21ZM59.4501 1099.46L43.1001 1099.46L43.1001 1101.46L59.4501 1101.46L59.4501 1099.46ZM43.2521 1099.47C35.5984 1098.3 28.6405 1095.55 22.3666 1091.24L21.2335 1092.89C27.7596 1097.37 35.0017 1100.23 42.948 1101.45L43.2521 1099.47ZM22.3638 1091.24C16.2074 1087.03 11.2637 1081.41 7.53445 1074.35L5.76568 1075.28C9.63646 1082.61 14.7928 1088.49 21.2363 1092.89L22.3638 1091.24ZM7.53174 1074.34C3.81988 1067.4 1.95007 1059.42 1.95007 1050.36L-0.0499272 1050.36C-0.0499276 1059.7 1.88026 1068.02 5.76842 1075.28L7.53174 1074.34ZM1.95007 1050.36C1.95007 1040.22 4.21405 1031.29 8.71425 1023.57L6.9859 1022.56C2.2861 1030.63 -0.0499267 1039.91 -0.0499272 1050.36L1.95007 1050.36ZM8.71425 1023.57C13.2202 1015.83 19.433 1009.86 27.369 1005.65L26.4312 1003.88C18.1671 1008.27 11.68 1014.5 6.9859 1022.56L8.71425 1023.57ZM27.3645 1005.65C35.403 1001.43 44.59 999.312 54.9501 999.312L54.9501 997.312C44.3102 997.312 34.7972 999.492 26.4357 1003.88L27.3645 1005.65ZM54.9501 999.312C65.3105 999.312 74.4453 1001.43 82.3812 1005.65L83.319 1003.88C75.0548 999.492 65.5897 997.312 54.9501 997.312L54.9501 999.312ZM82.3857 1005.65C90.4229 1009.86 96.6313 1015.78 101.034 1023.41L102.766 1022.41C98.1688 1014.44 91.6773 1008.26 83.3145 1003.88L82.3857 1005.65ZM101.036 1023.42C105.536 1031.14 107.8 1040.07 107.8 1050.21L109.8 1050.21C109.8 1039.76 107.464 1030.48 102.764 1022.41L101.036 1023.42ZM2.00007 1203.43L1.00007 1203.43L1.00007 1204.43L2.00007 1204.43L2.00007 1203.43ZM2.00007 1186.33L1.45019 1185.49L1.00007 1185.79L1.00007 1186.33L2.00007 1186.33ZM80.1501 1134.88L80.7 1135.71L83.4876 1133.88L80.1501 1133.88L80.1501 1134.88ZM2.00007 1134.88L1.00007 1134.88L1.00007 1135.88L2.00007 1135.88L2.00007 1134.88ZM2.00007 1117.78L2.00007 1116.78L1.00007 1116.78L1.00007 1117.78L2.00007 1117.78ZM107.75 1117.78L108.75 1117.78L108.75 1116.78L107.75 1116.78L107.75 1117.78ZM107.75 1134.88L108.298 1135.71L108.75 1135.42L108.75 1134.88L107.75 1134.88ZM29.3001 1186.33L28.7517 1185.49L25.9518 1187.33L29.3001 1187.33L29.3001 1186.33ZM107.75 1186.33L108.75 1186.33L108.75 1185.33L107.75 1185.33L107.75 1186.33ZM107.75 1203.43L107.75 1204.43L108.75 1204.43L108.75 1203.43L107.75 1203.43ZM3.00007 1203.43L3.00007 1186.33L1.00007 1186.33L1.00007 1203.43L3.00007 1203.43ZM2.54995 1187.16L80.7 1135.71L79.6002 1134.04L1.45019 1185.49L2.54995 1187.16ZM80.1501 1133.88L2.00007 1133.88L2.00007 1135.88L80.1501 1135.88L80.1501 1133.88ZM3.00007 1134.88L3.00007 1117.78L1.00007 1117.78L1.00007 1134.88L3.00007 1134.88ZM2.00007 1118.78L107.75 1118.78L107.75 1116.78L2.00007 1116.78L2.00007 1118.78ZM106.75 1117.78L106.75 1134.88L108.75 1134.88L108.75 1117.78L106.75 1117.78ZM107.202 1134.04L28.7517 1185.49L29.8485 1187.16L108.298 1135.71L107.202 1134.04ZM29.3001 1187.33L107.75 1187.33L107.75 1185.33L29.3001 1185.33L29.3001 1187.33ZM106.75 1186.33L106.75 1203.43L108.75 1203.43L108.75 1186.33L106.75 1186.33ZM107.75 1202.43L2.00007 1202.43L2.00007 1204.43L107.75 1204.43L107.75 1202.43ZM15.6501 1325.13L15.156 1326L15.1644 1326.01L15.6501 1325.13ZM5.00006 1313.73L5.88385 1313.26L5.00006 1313.73ZM4.70006 1275.63L3.79024 1275.22L3.78722 1275.22L3.78428 1275.23L4.70006 1275.63ZM15.5001 1261.98L14.9057 1261.18L15.5001 1261.98ZM31.4001 1256.13L32.4001 1256.13L32.4001 1255.04L31.317 1255.14L31.4001 1256.13ZM31.4001 1274.43L31.5081 1275.43L32.4001 1275.33L32.4001 1274.43L31.4001 1274.43ZM19.5501 1280.28L18.8325 1279.59L18.8274 1279.59L18.8225 1279.6L19.5501 1280.28ZM18.8001 1306.23L19.5195 1305.54L19.5134 1305.53L19.5072 1305.52L18.8001 1306.23ZM38.9001 1307.43L38.2569 1306.67L38.2491 1306.67L38.2416 1306.68L38.9001 1307.43ZM44.7501 1299.63L45.6614 1300.04L44.7501 1299.63ZM49.5501 1286.88L50.4988 1287.2L50.503 1287.18L49.5501 1286.88ZM55.8501 1270.68L54.96 1270.23L54.9556 1270.23L55.8501 1270.68ZM95.7501 1260.03L95.2044 1260.87L95.7501 1260.03ZM105.65 1272.03L104.736 1272.44L104.739 1272.44L104.742 1272.45L105.65 1272.03ZM101.45 1315.68L100.679 1315.05L100.674 1315.05L101.45 1315.68ZM81.0501 1326.63L80.0501 1326.63L80.0501 1327.74L81.1566 1327.63L81.0501 1326.63ZM81.0501 1308.18L80.8777 1307.2L80.0501 1307.34L80.0501 1308.18L81.0501 1308.18ZM91.2501 1302.48L90.5311 1301.79L90.5193 1301.8L90.508 1301.81L91.2501 1302.48ZM91.8501 1278.48L91.0797 1279.12L91.0861 1279.13L91.0927 1279.13L91.8501 1278.48ZM72.3501 1277.13L71.7099 1276.36L71.7018 1276.37L71.6939 1276.38L72.3501 1277.13ZM66.8001 1284.63L65.8939 1284.21L65.8855 1284.23L65.8779 1284.24L66.8001 1284.63ZM62.1501 1297.23L61.2032 1296.91L61.1994 1296.92L61.1958 1296.93L62.1501 1297.23ZM55.7001 1313.58L54.8142 1313.12L54.8077 1313.13L54.8015 1313.14L55.7001 1313.58ZM46.4001 1324.38L45.8226 1323.57L45.816 1323.57L45.8096 1323.57L46.4001 1324.38ZM30.2001 1327.88C25.1682 1327.88 20.4856 1326.67 16.1357 1324.26L15.1644 1326.01C19.8145 1328.59 24.8319 1329.88 30.2001 1329.88L30.2001 1327.88ZM16.1441 1324.26C11.9319 1321.87 8.50762 1318.22 5.88385 1313.26L4.11628 1314.2C6.89252 1319.44 10.5683 1323.39 15.1561 1326L16.1441 1324.26ZM5.88385 1313.26C3.27869 1308.34 1.95006 1302.26 1.95006 1294.98L-0.0499378 1294.98C-0.0499382 1302.5 1.32145 1308.92 4.11628 1314.2L5.88385 1313.26ZM1.95006 1294.98C1.95006 1287.9 3.17943 1281.59 5.61585 1276.03L3.78428 1275.23C1.22071 1281.07 -0.0499375 1287.66 -0.0499378 1294.98L1.95006 1294.98ZM5.60988 1276.05C8.14634 1270.49 11.6437 1266.08 16.0945 1262.79L14.9057 1261.18C10.1565 1264.69 6.4538 1269.38 3.79024 1275.22L5.60988 1276.05ZM16.0945 1262.79C20.5372 1259.5 25.6579 1257.61 31.4831 1257.13L31.317 1255.14C25.1422 1255.65 19.663 1257.66 14.9057 1261.18L16.0945 1262.79ZM30.4001 1256.13L30.4001 1274.43L32.4001 1274.43L32.4001 1256.13L30.4001 1256.13ZM31.292 1273.44C26.4544 1273.96 22.2905 1276.02 18.8325 1279.59L20.2676 1280.98C23.4096 1277.74 27.1458 1275.9 31.5081 1275.43L31.292 1273.44ZM18.8225 1279.6C15.3128 1283.32 13.6001 1288.23 13.6001 1294.23L15.6001 1294.23C15.6001 1288.63 17.1873 1284.25 20.2777 1280.97L18.8225 1279.6ZM13.6001 1294.23C13.6001 1299.61 15.0521 1303.9 18.093 1306.94L19.5072 1305.52C16.948 1302.97 15.6001 1299.25 15.6001 1294.23L13.6001 1294.23ZM18.0807 1306.93C21.0874 1310.04 24.9563 1311.58 29.6001 1311.58L29.6001 1309.58C25.4439 1309.58 22.1128 1308.22 19.5195 1305.54L18.0807 1306.93ZM29.6001 1311.58C33.5935 1311.58 36.9426 1310.47 39.5586 1308.18L38.2416 1306.68C36.0575 1308.59 33.2066 1309.58 29.6001 1309.58L29.6001 1311.58ZM39.5433 1308.2C42.1629 1306 44.2024 1303.27 45.6614 1300.04L43.8387 1299.22C42.4978 1302.19 40.6372 1304.67 38.2569 1306.67L39.5433 1308.2ZM45.6614 1300.04C47.0817 1296.9 48.6941 1292.61 50.4987 1287.2L48.6014 1286.57C46.806 1291.95 45.2184 1296.16 43.8387 1299.22L45.6614 1300.04ZM50.503 1287.18C52.5939 1280.61 54.6758 1275.27 56.7445 1271.13L54.9556 1270.23C52.8243 1274.5 50.7062 1279.95 48.5971 1286.58L50.503 1287.18ZM56.7401 1271.14C58.7632 1267.19 61.705 1263.81 65.587 1260.99L64.4131 1259.37C60.2951 1262.36 57.1369 1265.98 54.96 1270.23L56.7401 1271.14ZM65.587 1260.99C69.3696 1258.25 74.3948 1256.83 80.7501 1256.83L80.7501 1254.83C74.1054 1254.83 68.6305 1256.31 64.4131 1259.37L65.587 1260.99ZM80.7501 1256.83C86.2786 1256.83 91.0844 1258.19 95.2044 1260.87L96.2957 1259.19C91.8157 1256.28 86.6216 1254.83 80.7501 1254.83L80.7501 1256.83ZM95.2044 1260.87C99.3248 1263.55 102.505 1267.39 104.736 1272.44L106.565 1271.63C104.195 1266.27 100.775 1262.11 96.2957 1259.19L95.2044 1260.87ZM104.742 1272.45C107.071 1277.5 108.25 1283.35 108.25 1290.03L110.25 1290.03C110.25 1283.11 109.029 1276.97 106.558 1271.61L104.742 1272.45ZM108.25 1290.03C108.25 1300.67 105.689 1308.97 100.679 1315.05L102.221 1316.32C107.611 1309.79 110.25 1300.99 110.25 1290.03L108.25 1290.03ZM100.674 1315.05C95.6449 1321.24 89.0883 1324.76 80.9435 1325.64L81.1566 1327.63C89.8119 1326.7 96.8552 1322.92 102.226 1316.31L100.674 1315.05ZM82.0501 1326.63L82.0501 1308.18L80.0501 1308.18L80.0501 1326.63L82.0501 1326.63ZM81.2224 1309.17C85.4489 1308.43 89.0473 1306.41 91.9922 1303.15L90.508 1301.81C87.8528 1304.75 84.6513 1306.54 80.8777 1307.2L81.2224 1309.17ZM91.9691 1303.18C95.0945 1299.94 96.6001 1295.52 96.6001 1290.03L94.6001 1290.03C94.6001 1295.15 93.2056 1299.02 90.5311 1301.79L91.9691 1303.18ZM96.6001 1290.03C96.6001 1285.05 95.3006 1280.95 92.6075 1277.83L91.0927 1279.13C93.3995 1281.81 94.6001 1285.41 94.6001 1290.03L96.6001 1290.03ZM92.6205 1277.84C89.9886 1274.66 86.1754 1273.13 81.3501 1273.13L81.3501 1275.13C85.7247 1275.13 88.9116 1276.5 91.0797 1279.12L92.6205 1277.84ZM81.3501 1273.13C77.5537 1273.13 74.3165 1274.19 71.7099 1276.36L72.9903 1277.9C75.1836 1276.07 77.9464 1275.13 81.3501 1275.13L81.3501 1273.13ZM71.6939 1276.38C69.2794 1278.48 67.3479 1281.09 65.8939 1284.21L67.7063 1285.05C69.0522 1282.17 70.8207 1279.79 73.0062 1277.89L71.6939 1276.38ZM65.8779 1284.24C64.565 1287.38 63.0065 1291.6 61.2032 1296.91L63.097 1297.55C64.8937 1292.26 66.4352 1288.09 67.7223 1285.02L65.8779 1284.24ZM61.1958 1296.93C59.106 1303.6 56.9768 1308.99 54.8142 1313.12L56.5859 1314.05C58.8233 1309.77 60.9941 1304.26 63.1043 1297.53L61.1958 1296.93ZM54.8015 1313.14C52.7788 1317.28 49.7926 1320.76 45.8226 1323.57L46.9775 1325.2C51.2075 1322.21 54.4213 1318.48 56.5986 1314.02L54.8015 1313.14ZM45.8096 1323.57C41.9282 1326.41 36.755 1327.88 30.2001 1327.88L30.2001 1329.88C37.0451 1329.88 42.6719 1328.35 46.9906 1325.19L45.8096 1323.57ZM94.1001 1363.1L95.1001 1363.1L95.1001 1362.1L94.1001 1362.1L94.1001 1363.1ZM62.0001 1363.1L62.0001 1362.1L61.0001 1362.1L61.0001 1363.1L62.0001 1363.1ZM62.0001 1402.1L62.0001 1403.1L63.0001 1403.1L63.0001 1402.1L62.0001 1402.1ZM48.8001 1402.1L47.8001 1402.1L47.8001 1403.1L48.8001 1403.1L48.8001 1402.1ZM48.8001 1363.1L49.8001 1363.1L49.8001 1362.1L48.8001 1362.1L48.8001 1363.1ZM15.9501 1363.1L15.9501 1362.1L14.9501 1362.1L14.9501 1363.1L15.9501 1363.1ZM15.9501 1406.6L15.9501 1407.6L16.9501 1407.6L16.9501 1406.6L15.9501 1406.6ZM2.00006 1406.6L1.00006 1406.6L1.00006 1407.6L2.00006 1407.6L2.00006 1406.6ZM2.00006 1346L2.00006 1345L1.00006 1345L1.00006 1346L2.00006 1346ZM107.9 1346L108.9 1346L108.9 1345L107.9 1345L107.9 1346ZM107.9 1406.6L107.9 1407.6L108.9 1407.6L108.9 1406.6L107.9 1406.6ZM94.1001 1406.6L93.1001 1406.6L93.1001 1407.6L94.1001 1407.6L94.1001 1406.6ZM94.1001 1362.1L62.0001 1362.1L62.0001 1364.1L94.1001 1364.1L94.1001 1362.1ZM61.0001 1363.1L61.0001 1402.1L63.0001 1402.1L63.0001 1363.1L61.0001 1363.1ZM62.0001 1401.1L48.8001 1401.1L48.8001 1403.1L62.0001 1403.1L62.0001 1401.1ZM49.8001 1402.1L49.8001 1363.1L47.8001 1363.1L47.8001 1402.1L49.8001 1402.1ZM48.8001 1362.1L15.9501 1362.1L15.9501 1364.1L48.8001 1364.1L48.8001 1362.1ZM14.9501 1363.1L14.9501 1406.6L16.9501 1406.6L16.9501 1363.1L14.9501 1363.1ZM15.9501 1405.6L2.00006 1405.6L2.00006 1407.6L15.9501 1407.6L15.9501 1405.6ZM3.00006 1406.6L3.00006 1346L1.00006 1346L1.00006 1406.6L3.00006 1406.6ZM2.00006 1347L107.9 1347L107.9 1345L2.00006 1345L2.00006 1347ZM106.9 1346L106.9 1406.6L108.9 1406.6L108.9 1346L106.9 1346ZM107.9 1405.6L94.1001 1405.6L94.1001 1407.6L107.9 1407.6L107.9 1405.6ZM95.1001 1406.6L95.1001 1363.1L93.1001 1363.1L93.1001 1406.6L95.1001 1406.6ZM2.00006 1478.85L1.47059 1478L1.00006 1478.29L1.00006 1478.85L2.00006 1478.85ZM44.3001 1452.45L44.8295 1453.3L45.3001 1453L45.3001 1452.45L44.3001 1452.45ZM44.3001 1440.3L45.3001 1440.3L45.3001 1439.3L44.3001 1439.3L44.3001 1440.3ZM2.00006 1440.3L1.00006 1440.3L1.00006 1441.3L2.00006 1441.3L2.00006 1440.3ZM2.00006 1423.2L2.00006 1422.2L1.00006 1422.2L1.00006 1423.2L2.00006 1423.2ZM107.9 1423.2L108.9 1423.2L108.9 1422.2L107.9 1422.2L107.9 1423.2ZM99.0501 1488L98.3256 1487.31L98.3202 1487.31L99.0501 1488ZM55.2501 1490.4L55.9136 1489.65L55.9055 1489.64L55.2501 1490.4ZM45.0501 1470.3L46.0358 1470.13L45.7813 1468.64L44.5083 1469.46L45.0501 1470.3ZM2.00006 1498.05L1.00006 1498.05L1.00006 1499.88L2.54185 1498.89L2.00006 1498.05ZM56.4501 1440.3L56.4501 1439.3L55.4501 1439.3L55.4501 1440.3L56.4501 1440.3ZM88.2501 1474.8L87.543 1474.09L87.5322 1474.1L87.5219 1474.11L88.2501 1474.8ZM93.2001 1440.3L94.2001 1440.3L94.2001 1439.3L93.2001 1439.3L93.2001 1440.3ZM2.52952 1479.7L44.8295 1453.3L43.7706 1451.6L1.47059 1478L2.52952 1479.7ZM45.3001 1452.45L45.3001 1440.3L43.3001 1440.3L43.3001 1452.45L45.3001 1452.45ZM44.3001 1439.3L2.00006 1439.3L2.00006 1441.3L44.3001 1441.3L44.3001 1439.3ZM3.00006 1440.3L3.00006 1423.2L1.00006 1423.2L1.00006 1440.3L3.00006 1440.3ZM2.00006 1424.2L107.9 1424.2L107.9 1422.2L2.00006 1422.2L2.00006 1424.2ZM106.9 1423.2L106.9 1460.55L108.9 1460.55L108.9 1423.2L106.9 1423.2ZM106.9 1460.55C106.9 1472.5 103.987 1481.36 98.3256 1487.31L99.7745 1488.69C105.913 1482.24 108.9 1472.8 108.9 1460.55L106.9 1460.55ZM98.3202 1487.31C92.6336 1493.39 85.1113 1496.45 75.6501 1496.45L75.6501 1498.45C85.5889 1498.45 93.6665 1495.21 99.78 1488.68L98.3202 1487.31ZM75.6501 1496.45C67.5501 1496.45 60.9999 1494.16 55.9135 1489.65L54.5866 1491.15C60.1002 1496.04 67.15 1498.45 75.6501 1498.45L75.6501 1496.45ZM55.9055 1489.64C50.8233 1485.23 47.5078 1478.76 46.0358 1470.13L44.0643 1470.47C45.5924 1479.43 49.0768 1486.36 54.5946 1491.15L55.9055 1489.64ZM44.5083 1469.46L1.45826 1497.21L2.54185 1498.89L45.5919 1471.14L44.5083 1469.46ZM3.00006 1498.05L3.00006 1478.85L1.00006 1478.85L1.00006 1498.05L3.00006 1498.05ZM55.4501 1440.3L55.4501 1459.2L57.4501 1459.2L57.4501 1440.3L55.4501 1440.3ZM55.4501 1459.2C55.4501 1466.22 57.0002 1471.68 60.2759 1475.39C63.5723 1479.11 68.4618 1480.9 74.7501 1480.9L74.7501 1478.9C68.8384 1478.9 64.5778 1477.23 61.7743 1474.06C58.9499 1470.87 57.4501 1465.97 57.4501 1459.2L55.4501 1459.2ZM74.7501 1480.9C80.7544 1480.9 85.5454 1479.13 88.9783 1475.48L87.5219 1474.11C84.5547 1477.26 80.3457 1478.9 74.7501 1478.9L74.7501 1480.9ZM88.9572 1475.5C92.5228 1471.94 94.2001 1466.43 94.2001 1459.2L92.2001 1459.2C92.2001 1466.17 90.5773 1471.06 87.543 1474.09L88.9572 1475.5ZM94.2001 1459.2L94.2001 1440.3L92.2001 1440.3L92.2001 1459.2L94.2001 1459.2ZM93.2001 1439.3L56.4501 1439.3L56.4501 1441.3L93.2001 1441.3L93.2001 1439.3ZM107.9 1523.5L108.228 1524.44L108.9 1524.21L108.9 1523.5L107.9 1523.5ZM20.3001 1553.95L19.9717 1553L17.261 1553.94L19.9703 1554.89L20.3001 1553.95ZM107.9 1584.55L108.9 1584.55L108.9 1583.84L108.23 1583.6L107.9 1584.55ZM107.9 1603.15L107.56 1604.09L108.9 1604.57L108.9 1603.15L107.9 1603.15ZM2.00005 1564.9L1.00005 1564.9L1.00005 1565.6L1.66035 1565.84L2.00005 1564.9ZM2.00005 1543L1.66152 1542.06L1.00005 1542.29L1.00005 1543L2.00005 1543ZM107.9 1504.9L108.9 1504.9L108.9 1503.47L107.562 1503.96L107.9 1504.9ZM107.572 1522.55L19.9717 1553L20.6284 1554.89L108.228 1524.44L107.572 1522.55ZM19.9703 1554.89L107.57 1585.49L108.23 1583.6L20.6298 1553L19.9703 1554.89ZM106.9 1584.55L106.9 1603.15L108.9 1603.15L108.9 1584.55L106.9 1584.55ZM108.24 1602.21L2.33976 1563.96L1.66035 1565.84L107.56 1604.09L108.24 1602.21ZM3.00005 1564.9L3.00005 1543L1.00005 1543L1.00005 1564.9L3.00005 1564.9ZM2.33859 1543.94L108.239 1505.84L107.562 1503.96L1.66152 1542.06L2.33859 1543.94ZM106.9 1504.9L106.9 1523.5L108.9 1523.5L108.9 1504.9L106.9 1504.9ZM107.9 1632.92L107.9 1633.92L108.9 1633.92L108.9 1632.92L107.9 1632.92ZM2.00005 1632.92L1.00005 1632.92L1.00005 1633.92L2.00005 1633.92L2.00005 1632.92ZM2.00005 1615.82L2.00005 1614.82L1.00005 1614.82L1.00005 1615.82L2.00005 1615.82ZM107.9 1615.82L108.9 1615.82L108.9 1614.82L107.9 1614.82L107.9 1615.82ZM107.9 1631.92L2.00005 1631.92L2.00005 1633.92L107.9 1633.92L107.9 1631.92ZM3.00005 1632.92L3.00005 1615.82L1.00005 1615.82L1.00005 1632.92L3.00005 1632.92ZM2.00005 1616.82L107.9 1616.82L107.9 1614.82L2.00005 1614.82L2.00005 1616.82ZM106.9 1615.82L106.9 1632.92L108.9 1632.92L108.9 1615.82L106.9 1615.82ZM99.05 1733.27L98.2567 1732.66L99.05 1733.27ZM72.2 1750.67L71.2 1750.67L71.2 1751.97L72.4566 1751.63L72.2 1750.67ZM72.2001 1732.52L71.8362 1731.59L71.2001 1731.83L71.2001 1732.52L72.2001 1732.52ZM87.35 1720.52L86.5322 1719.94L86.5262 1719.95L86.5203 1719.96L87.35 1720.52ZM88.4 1683.62L89.25 1683.09L89.2451 1683.08L88.4 1683.62ZM75.0501 1671.92L75.4973 1671.02L75.491 1671.02L75.0501 1671.92ZM34.8501 1671.92L34.4153 1671.02L34.4059 1671.02L34.3966 1671.03L34.8501 1671.92ZM21.6501 1683.62L20.8049 1683.08L20.8001 1683.09L21.6501 1683.62ZM22.55 1720.52L21.7251 1721.08L21.7273 1721.09L22.55 1720.52ZM37.7 1732.52L38.7 1732.52L38.7 1731.84L38.0689 1731.59L37.7 1732.52ZM37.7 1750.67L37.4435 1751.63L38.7 1751.97L38.7 1750.67L37.7 1750.67ZM10.8501 1733.27L10.0523 1733.87L10.0567 1733.88L10.8501 1733.27ZM7.85005 1674.32L6.99153 1673.8L6.98668 1673.81L7.85005 1674.32ZM26.9 1656.47L26.4442 1655.58L26.4397 1655.58L26.9 1656.47ZM82.8501 1656.47L82.3897 1657.36L82.3942 1657.36L82.8501 1656.47ZM102.05 1674.32L101.192 1674.83L102.05 1674.32ZM107.95 1700.87C107.95 1713.69 104.698 1724.27 98.2567 1732.66L99.8434 1733.88C106.603 1725.07 109.95 1714.04 109.95 1700.87L107.95 1700.87ZM98.2567 1732.66C91.802 1741.07 83.0478 1746.75 71.9435 1749.7L72.4566 1751.63C83.9523 1748.58 93.0981 1742.67 99.8434 1733.88L98.2567 1732.66ZM73.2 1750.67L73.2001 1732.52L71.2001 1732.52L71.2 1750.67L73.2 1750.67ZM72.5639 1733.45C79.1462 1730.88 84.3618 1726.75 88.1798 1721.08L86.5203 1719.96C82.9383 1725.28 78.0539 1729.16 71.8362 1731.59L72.5639 1733.45ZM88.1679 1721.09C92.1082 1715.49 94.0501 1708.63 94.0501 1700.57L92.0501 1700.57C92.0501 1708.3 90.1919 1714.74 86.5322 1719.94L88.1679 1721.09ZM94.0501 1700.57C94.0501 1694.1 92.4551 1688.26 89.25 1683.09L87.5502 1684.14C90.545 1688.97 92.0501 1694.44 92.0501 1700.57L94.0501 1700.57ZM89.2451 1683.08C86.0366 1678.01 81.4404 1673.99 75.4973 1671.02L74.6028 1672.81C80.2597 1675.64 84.5635 1679.42 87.555 1684.15L89.2451 1683.08ZM75.491 1671.02C69.6277 1668.14 62.7709 1666.72 54.9501 1666.72L54.9501 1668.72C62.5292 1668.72 69.0724 1670.1 74.6091 1672.82L75.491 1671.02ZM54.9501 1666.72C47.2264 1666.72 40.3732 1668.14 34.4153 1671.02L35.2848 1672.82C40.9269 1670.09 47.4737 1668.72 54.9501 1668.72L54.9501 1666.72ZM34.3966 1671.03C28.5533 1674 24.0108 1678.02 20.805 1683.08L22.4951 1684.15C25.4893 1679.42 29.7468 1675.64 35.3035 1672.81L34.3966 1671.03ZM20.8001 1683.09C17.595 1688.26 16 1694.1 16 1700.57L18 1700.57C18 1694.44 19.5051 1688.97 22.5 1684.14L20.8001 1683.09ZM16 1700.57C16 1708.63 17.8893 1715.48 21.7251 1721.08L23.375 1719.95C19.8108 1714.75 18 1708.31 18 1700.57L16 1700.57ZM21.7273 1721.09C25.6413 1726.75 30.8503 1730.88 37.3312 1733.45L38.0689 1731.59C31.9498 1729.16 27.0588 1725.28 23.3728 1719.95L21.7273 1721.09ZM36.7 1732.52L36.7 1750.67L38.7 1750.67L38.7 1732.52L36.7 1732.52ZM37.9566 1749.7C26.8523 1746.75 18.0981 1741.07 11.6434 1732.66L10.0567 1733.88C16.802 1742.67 25.9478 1748.58 37.4435 1751.63L37.9566 1749.7ZM11.6478 1732.66C5.30434 1724.27 2.10005 1713.7 2.10005 1700.87L0.100054 1700.87C0.100053 1714.04 3.39575 1725.06 10.0523 1733.87L11.6478 1732.66ZM2.10005 1700.87C2.10005 1691.02 4.31337 1682.35 8.71343 1674.82L6.98668 1673.81C2.38672 1681.68 0.100054 1690.71 0.100054 1700.87L2.10005 1700.87ZM8.70853 1674.83C13.2115 1667.29 19.4223 1661.47 27.3604 1657.36L26.4397 1655.58C18.1778 1659.86 11.6886 1665.94 6.99158 1673.8L8.70853 1674.83ZM27.3559 1657.36C35.3962 1653.24 44.5863 1651.17 54.9501 1651.17L54.9501 1649.17C44.3138 1649.17 34.8039 1651.3 26.4442 1655.58L27.3559 1657.36ZM54.9501 1651.17C65.3141 1651.17 74.4521 1653.24 82.3897 1657.36L83.3104 1655.58C75.048 1651.3 65.586 1649.17 54.9501 1649.17L54.9501 1651.17ZM82.3942 1657.36C90.432 1661.47 96.6905 1667.3 101.192 1674.83L102.909 1673.8C98.2096 1665.94 91.6681 1659.86 83.3059 1655.58L82.3942 1657.36ZM101.192 1674.83C105.689 1682.36 107.95 1691.03 107.95 1700.87L109.95 1700.87C109.95 1690.71 107.611 1681.68 102.909 1673.8L101.192 1674.83ZM94.1 1784.83L95.1 1784.83L95.1 1783.83L94.1 1783.83L94.1 1784.83ZM62 1784.83L62 1783.83L61 1783.83L61 1784.83L62 1784.83ZM62 1823.83L62 1824.83L63 1824.83L63 1823.83L62 1823.83ZM48.8 1823.83L47.8 1823.83L47.8 1824.83L48.8 1824.83L48.8 1823.83ZM48.8 1784.83L49.8 1784.83L49.8 1783.83L48.8 1783.83L48.8 1784.83ZM15.95 1784.83L15.95 1783.83L14.95 1783.83L14.95 1784.83L15.95 1784.83ZM15.95 1828.33L15.95 1829.33L16.95 1829.33L16.95 1828.33L15.95 1828.33ZM2.00004 1828.33L1.00004 1828.33L1.00004 1829.33L2.00004 1829.33L2.00004 1828.33ZM2.00004 1767.73L2.00004 1766.73L1.00004 1766.73L1.00004 1767.73L2.00004 1767.73ZM107.9 1767.73L108.9 1767.73L108.9 1766.73L107.9 1766.73L107.9 1767.73ZM107.9 1828.33L107.9 1829.33L108.9 1829.33L108.9 1828.33L107.9 1828.33ZM94.1 1828.33L93.1 1828.33L93.1 1829.33L94.1 1829.33L94.1 1828.33ZM94.1 1783.83L62 1783.83L62 1785.83L94.1 1785.83L94.1 1783.83ZM61 1784.83L61 1823.83L63 1823.83L63 1784.83L61 1784.83ZM62 1822.83L48.8 1822.83L48.8 1824.83L62 1824.83L62 1822.83ZM49.8 1823.83L49.8 1784.83L47.8 1784.83L47.8 1823.83L49.8 1823.83ZM48.8 1783.83L15.95 1783.83L15.95 1785.83L48.8 1785.83L48.8 1783.83ZM14.95 1784.83L14.95 1828.33L16.95 1828.33L16.95 1784.83L14.95 1784.83ZM15.95 1827.33L2.00004 1827.33L2.00004 1829.33L15.95 1829.33L15.95 1827.33ZM3.00004 1828.33L3.00004 1767.73L1.00004 1767.73L1.00004 1828.33L3.00004 1828.33ZM2.00004 1768.73L107.9 1768.73L107.9 1766.73L2.00004 1766.73L2.00004 1768.73ZM106.9 1767.73L106.9 1828.33L108.9 1828.33L108.9 1767.73L106.9 1767.73ZM107.9 1827.33L94.1 1827.33L94.1 1829.33L107.9 1829.33L107.9 1827.33ZM95.1 1828.33L95.1 1784.83L93.1 1784.83L93.1 1828.33L95.1 1828.33ZM15.65 1910.78L15.156 1911.65L15.1644 1911.65L15.65 1910.78ZM5.00004 1899.38L5.88383 1898.91L5.00004 1899.38ZM4.70004 1861.28L3.79022 1860.86L3.7872 1860.87L3.78425 1860.87L4.70004 1861.28ZM15.5 1847.63L14.9057 1846.82L15.5 1847.63ZM31.4 1841.78L32.4 1841.78L32.4 1840.69L31.317 1840.78L31.4 1841.78ZM31.4 1860.08L31.5081 1861.07L32.4 1860.97L32.4 1860.08L31.4 1860.08ZM19.55 1865.93L18.8325 1865.23L18.8274 1865.23L18.8225 1865.24L19.55 1865.93ZM18.8 1891.88L19.5194 1891.18L19.5133 1891.18L19.5071 1891.17L18.8 1891.88ZM38.9 1893.08L38.2568 1892.31L38.2491 1892.32L38.2415 1892.32L38.9 1893.08ZM44.75 1885.28L45.6614 1885.69L44.75 1885.28ZM49.55 1872.53L50.4988 1872.84L50.503 1872.83L49.55 1872.53ZM55.85 1856.33L54.96 1855.87L54.9556 1855.88L55.85 1856.33ZM95.75 1845.68L95.2044 1846.51L95.75 1845.68ZM105.65 1857.68L104.736 1858.08L104.739 1858.09L104.742 1858.1L105.65 1857.68ZM101.45 1901.33L100.679 1900.69L100.674 1900.7L101.45 1901.33ZM81.05 1912.28L80.05 1912.28L80.05 1913.39L81.1566 1913.27L81.05 1912.28ZM81.05 1893.83L80.8777 1892.84L80.05 1892.99L80.05 1893.83L81.05 1893.83ZM91.25 1888.13L90.5311 1887.43L90.5193 1887.44L90.5079 1887.46L91.25 1888.13ZM91.85 1864.13L91.0797 1864.76L91.0861 1864.77L91.0926 1864.78L91.85 1864.13ZM72.35 1862.78L71.7099 1862.01L71.7018 1862.01L71.6939 1862.02L72.35 1862.78ZM66.8 1870.28L65.8939 1869.85L65.8855 1869.87L65.8778 1869.89L66.8 1870.28ZM62.15 1882.88L61.2032 1882.55L61.1994 1882.57L61.1958 1882.58L62.15 1882.88ZM55.7 1899.23L54.8142 1898.76L54.8077 1898.77L54.8015 1898.79L55.7 1899.23ZM46.4 1910.03L45.8226 1909.21L45.816 1909.21L45.8095 1909.22L46.4 1910.03ZM30.2 1913.53C25.1682 1913.53 20.4856 1912.32 16.1357 1909.9L15.1644 1911.65C19.8145 1914.23 24.8319 1915.53 30.2 1915.53L30.2 1913.53ZM16.1441 1909.91C11.9318 1907.51 8.50759 1903.86 5.88383 1898.91L4.11625 1899.84C6.89249 1905.09 10.5682 1909.04 15.156 1911.65L16.1441 1909.91ZM5.88383 1898.91C3.27866 1893.99 1.95004 1887.91 1.95004 1880.63L-0.0499634 1880.63C-0.0499638 1888.14 1.32142 1894.56 4.11625 1899.84L5.88383 1898.91ZM1.95004 1880.63C1.95004 1873.54 3.17941 1867.23 5.61582 1861.68L3.78425 1860.87C1.22068 1866.72 -0.0499631 1873.31 -0.0499634 1880.63L1.95004 1880.63ZM5.60986 1861.69C8.14631 1856.13 11.6436 1851.72 16.0944 1848.43L14.9057 1846.82C10.1565 1850.33 6.45378 1855.02 3.79022 1860.86L5.60986 1861.69ZM16.0944 1848.43C20.5372 1845.15 25.6579 1843.26 31.4831 1842.77L31.317 1840.78C25.1422 1841.29 19.6629 1843.31 14.9057 1846.82L16.0944 1848.43ZM30.4 1841.78L30.4 1860.08L32.4 1860.08L32.4 1841.78L30.4 1841.78ZM31.292 1859.08C26.4543 1859.61 22.2905 1861.67 18.8325 1865.23L20.2676 1866.62C23.4096 1863.39 27.1457 1861.54 31.5081 1861.07L31.292 1859.08ZM18.8225 1865.24C15.3128 1868.96 13.6 1873.88 13.6 1879.88L15.6 1879.88C15.6 1874.28 17.1873 1869.89 20.2776 1866.61L18.8225 1865.24ZM13.6 1879.88C13.6 1885.26 15.0521 1889.54 18.0929 1892.58L19.5071 1891.17C16.948 1888.61 15.6 1884.9 15.6 1879.88L13.6 1879.88ZM18.0806 1892.57C21.0873 1895.68 24.9562 1897.23 29.6 1897.23L29.6 1895.23C25.4439 1895.23 22.1127 1893.87 19.5194 1891.18L18.0806 1892.57ZM29.6 1897.23C33.5935 1897.23 36.9426 1896.12 39.5585 1893.83L38.2415 1892.32C36.0575 1894.23 33.2066 1895.23 29.6 1895.23L29.6 1897.23ZM39.5432 1893.84C42.1629 1891.64 44.2024 1888.92 45.6614 1885.69L43.8387 1884.86C42.4977 1887.83 40.6372 1890.31 38.2568 1892.31L39.5432 1893.84ZM45.6614 1885.69C47.0817 1882.54 48.6941 1878.26 50.4987 1872.84L48.6014 1872.21C46.806 1877.6 45.2184 1881.81 43.8387 1884.86L45.6614 1885.69ZM50.503 1872.83C52.5939 1866.26 54.6758 1860.91 56.7445 1856.77L54.9556 1855.88C52.8243 1860.14 50.7062 1865.59 48.5971 1872.22L50.503 1872.83ZM56.7401 1856.78C58.7632 1852.83 61.705 1849.45 65.587 1846.64L64.4131 1845.02C60.2951 1848 57.1369 1851.62 54.96 1855.87L56.7401 1856.78ZM65.587 1846.64C69.3696 1843.89 74.3947 1842.48 80.75 1842.48L80.75 1840.48C74.1053 1840.48 68.6305 1841.96 64.4131 1845.02L65.587 1846.64ZM80.75 1842.48C86.2786 1842.48 91.0844 1843.83 95.2044 1846.51L96.2957 1844.84C91.8157 1841.92 86.6215 1840.48 80.75 1840.48L80.75 1842.48ZM95.2044 1846.51C99.3247 1849.2 102.505 1853.04 104.736 1858.08L106.565 1857.27C104.195 1851.91 100.775 1847.76 96.2957 1844.84L95.2044 1846.51ZM104.742 1858.1C107.071 1863.14 108.25 1868.99 108.25 1875.68L110.25 1875.68C110.25 1868.76 109.029 1862.61 106.558 1857.26L104.742 1858.1ZM108.25 1875.68C108.25 1886.32 105.689 1894.62 100.679 1900.69L102.221 1901.96C107.611 1895.43 110.25 1886.63 110.25 1875.68L108.25 1875.68ZM100.674 1900.7C95.6449 1906.89 89.0882 1910.41 80.9435 1911.28L81.1566 1913.27C89.8118 1912.34 96.8552 1908.57 102.226 1901.96L100.674 1900.7ZM82.05 1912.28L82.05 1893.83L80.05 1893.83L80.05 1912.28L82.05 1912.28ZM81.2224 1894.81C85.4488 1894.07 89.0473 1892.06 91.9921 1888.8L90.5079 1887.46C87.8528 1890.4 84.6513 1892.18 80.8777 1892.84L81.2224 1894.81ZM91.969 1888.82C95.0945 1885.59 96.6 1881.16 96.6 1875.68L94.6 1875.68C94.6 1880.79 93.2056 1884.66 90.5311 1887.43L91.969 1888.82ZM96.6 1875.68C96.6 1870.7 95.3006 1866.6 92.6075 1863.47L91.0926 1864.78C93.3995 1867.46 94.6 1871.05 94.6 1875.68L96.6 1875.68ZM92.6204 1863.49C89.9886 1860.31 86.1754 1858.78 81.35 1858.78L81.35 1860.78C85.7247 1860.78 88.9115 1862.14 91.0797 1864.76L92.6204 1863.49ZM81.35 1858.78C77.5537 1858.78 74.3165 1859.84 71.7099 1862.01L72.9902 1863.54C75.1836 1861.72 77.9464 1860.78 81.35 1860.78L81.35 1858.78ZM71.6939 1862.02C69.2794 1864.12 67.3479 1866.74 65.8939 1869.85L67.7062 1870.7C69.0522 1867.81 70.8207 1865.43 73.0062 1863.53L71.6939 1862.02ZM65.8778 1869.89C64.5649 1873.02 63.0064 1877.24 61.2032 1882.55L63.0969 1883.2C64.8937 1877.91 66.4352 1873.73 67.7222 1870.66L65.8778 1869.89ZM61.1958 1882.58C59.106 1889.24 56.9768 1894.63 54.8142 1898.76L56.5859 1899.69C58.8233 1895.42 60.9941 1889.91 63.1043 1883.18L61.1958 1882.58ZM54.8015 1898.79C52.7788 1902.93 49.7926 1906.4 45.8226 1909.21L46.9775 1910.84C51.2075 1907.85 54.4213 1904.12 56.5986 1899.67L54.8015 1898.79ZM45.8095 1909.22C41.9282 1912.06 36.755 1913.53 30.2 1913.53L30.2 1915.53C37.0451 1915.53 42.6719 1913.99 46.9905 1910.83L45.8095 1909.22ZM24.95 2029.95L25.2829 2030.89L25.95 2030.66L25.95 2029.95L24.95 2029.95ZM24.95 1985.25L25.95 1985.25L25.95 1984.54L25.2829 1984.31L24.95 1985.25ZM2.00004 1977.15L1.00004 1977.15L1.00004 1977.86L1.66721 1978.09L2.00004 1977.15ZM2.00004 1958.85L2.35042 1957.91L1.00004 1957.41L1.00004 1958.85L2.00004 1958.85ZM106.25 1997.85L107.25 1997.85L107.25 1997.16L106.6 1996.91L106.25 1997.85ZM106.25 2017.5L106.599 2018.44L107.25 2018.2L107.25 2017.5L106.25 2017.5ZM2.00003 2056.35L1.00003 2056.35L1.00003 2057.79L2.34923 2057.29L2.00003 2056.35ZM2.00003 2038.05L1.66721 2037.11L1.00003 2037.34L1.00003 2038.05L2.00003 2038.05ZM38.15 2025.15L37.15 2025.15L37.15 2026.57L38.4842 2026.09L38.15 2025.15ZM87.65 2007.6L87.9842 2008.54L90.6426 2007.6L87.9842 2006.66L87.65 2007.6ZM38.15 1990.05L38.4842 1989.11L37.15 1988.64L37.15 1990.05L38.15 1990.05ZM25.95 2029.95L25.95 1985.25L23.95 1985.25L23.95 2029.95L25.95 2029.95ZM25.2829 1984.31L2.33286 1976.21L1.66721 1978.09L24.6172 1986.19L25.2829 1984.31ZM3.00004 1977.15L3.00004 1958.85L1.00004 1958.85L1.00004 1977.15L3.00004 1977.15ZM1.64965 1959.79L105.9 1998.79L106.6 1996.91L2.35042 1957.91L1.64965 1959.79ZM105.25 1997.85L105.25 2017.5L107.25 2017.5L107.25 1997.85L105.25 1997.85ZM105.901 2016.56L1.65083 2055.41L2.34923 2057.29L106.599 2018.44L105.901 2016.56ZM3.00003 2056.35L3.00003 2038.05L1.00003 2038.05L1.00003 2056.35L3.00003 2056.35ZM2.33286 2038.99L25.2829 2030.89L24.6172 2029.01L1.66721 2037.11L2.33286 2038.99ZM38.4842 2026.09L87.9842 2008.54L87.3159 2006.66L37.8159 2024.21L38.4842 2026.09ZM87.9842 2006.66L38.4842 1989.11L37.8159 1990.99L87.3159 2008.54L87.9842 2006.66ZM37.15 1990.05L37.15 2025.15L39.15 2025.15L39.15 1990.05L37.15 1990.05ZM2.00003 2154.7L1.00003 2154.7L1.00003 2155.7L2.00003 2155.7L2.00003 2154.7ZM2.00003 2137.6L1.45015 2136.76L1.00003 2137.06L1.00003 2137.6L2.00003 2137.6ZM80.15 2086.15L80.6999 2086.98L83.4876 2085.15L80.15 2085.15L80.15 2086.15ZM2.00003 2086.15L1.00003 2086.15L1.00003 2087.15L2.00003 2087.15L2.00003 2086.15ZM2.00003 2069.05L2.00003 2068.05L1.00003 2068.05L1.00003 2069.05L2.00003 2069.05ZM107.75 2069.05L108.75 2069.05L108.75 2068.05L107.75 2068.05L107.75 2069.05ZM107.75 2086.15L108.298 2086.98L108.75 2086.69L108.75 2086.15L107.75 2086.15ZM29.3 2137.6L28.7516 2136.76L25.9518 2138.6L29.3 2138.6L29.3 2137.6ZM107.75 2137.6L108.75 2137.6L108.75 2136.6L107.75 2136.6L107.75 2137.6ZM107.75 2154.7L107.75 2155.7L108.75 2155.7L108.75 2154.7L107.75 2154.7ZM3.00003 2154.7L3.00003 2137.6L1.00003 2137.6L1.00003 2154.7L3.00003 2154.7ZM2.54991 2138.43L80.6999 2086.98L79.6002 2085.31L1.45015 2136.76L2.54991 2138.43ZM80.15 2085.15L2.00003 2085.15L2.00003 2087.15L80.15 2087.15L80.15 2085.15ZM3.00003 2086.15L3.00003 2069.05L1.00003 2069.05L1.00003 2086.15L3.00003 2086.15ZM2.00003 2070.05L107.75 2070.05L107.75 2068.05L2.00003 2068.05L2.00003 2070.05ZM106.75 2069.05L106.75 2086.15L108.75 2086.15L108.75 2069.05L106.75 2069.05ZM107.202 2085.31L28.7516 2136.76L29.8484 2138.43L108.298 2086.98L107.202 2085.31ZM29.3 2138.6L107.75 2138.6L107.75 2136.6L29.3 2136.6L29.3 2138.6ZM106.75 2137.6L106.75 2154.7L108.75 2154.7L108.75 2137.6L106.75 2137.6ZM107.75 2153.7L2.00003 2153.7L2.00003 2155.7L107.75 2155.7L107.75 2153.7ZM27.05 2259.69L27.5319 2258.82L27.5281 2258.82L27.05 2259.69ZM8.60003 2240.65L9.48586 2240.18L9.48356 2240.18L8.60003 2240.65ZM2.00003 2175.4L2.00003 2174.4L1.00003 2174.4L1.00003 2175.4L2.00003 2175.4ZM107.9 2175.4L108.9 2175.4L108.9 2174.4L107.9 2174.4L107.9 2175.4ZM101.3 2240.65L100.417 2240.18L100.413 2240.18L100.41 2240.19L101.3 2240.65ZM83 2259.69L82.5219 2258.82L82.5134 2258.82L83 2259.69ZM27.35 2238.69L26.6324 2239.39L27.35 2238.69ZM82.85 2238.69L83.5676 2239.39L82.85 2238.69ZM92.75 2192.49L93.75 2192.49L93.75 2191.49L92.75 2191.49L92.75 2192.49ZM17.45 2192.49L17.45 2191.49L16.45 2191.49L16.45 2192.49L17.45 2192.49ZM55.1 2265.29C44.5394 2265.29 35.3607 2263.12 27.5319 2258.82L26.5681 2260.57C34.7393 2265.07 44.2606 2267.29 55.1 2267.29L55.1 2265.29ZM27.5281 2258.82C19.8117 2254.62 13.7992 2248.42 9.48585 2240.18L7.7142 2241.11C12.2008 2249.67 18.4883 2256.17 26.572 2260.57L27.5281 2258.82ZM9.48356 2240.18C5.17596 2232.05 3.00002 2222.27 3.00003 2210.79L1.00003 2210.79C1.00002 2222.52 3.22408 2232.64 7.7165 2241.11L9.48356 2240.18ZM3.00003 2210.79L3.00003 2175.4L1.00003 2175.4L1.00003 2210.79L3.00003 2210.79ZM2.00003 2176.4L107.9 2176.4L107.9 2174.4L2.00003 2174.4L2.00003 2176.4ZM106.9 2175.4L106.9 2210.79L108.9 2210.79L108.9 2175.4L106.9 2175.4ZM106.9 2210.79C106.9 2222.27 104.724 2232.05 100.417 2240.18L102.184 2241.11C106.676 2232.64 108.9 2222.52 108.9 2210.79L106.9 2210.79ZM100.41 2240.19C96.1968 2248.42 90.2362 2254.62 82.5219 2258.82L83.4781 2260.57C91.5638 2256.17 97.8032 2249.67 102.19 2241.1L100.41 2240.19ZM82.5134 2258.82C74.7874 2263.12 65.661 2265.29 55.1 2265.29L55.1 2267.29C65.939 2267.29 75.4127 2265.07 83.4866 2260.57L82.5134 2258.82ZM16.45 2209.44C16.45 2222.31 19.7966 2232.35 26.6324 2239.39L28.0676 2238C21.7034 2231.44 18.45 2221.98 18.45 2209.44L16.45 2209.44ZM26.6324 2239.39C33.4663 2246.43 43.0029 2249.9 55.1 2249.9L55.1 2247.9C43.3971 2247.9 34.4337 2244.56 28.0676 2238L26.6324 2239.39ZM55.1 2249.9C67.1971 2249.9 76.7337 2246.43 83.5676 2239.39L82.1324 2238C75.7663 2244.56 66.8029 2247.9 55.1 2247.9L55.1 2249.9ZM83.5676 2239.39C90.4034 2232.35 93.75 2222.31 93.75 2209.44L91.75 2209.44C91.75 2221.98 88.4966 2231.44 82.1324 2238L83.5676 2239.39ZM93.75 2209.44L93.75 2192.49L91.75 2192.49L91.75 2209.44L93.75 2209.44ZM92.75 2191.49L17.45 2191.49L17.45 2193.49L92.75 2193.49L92.75 2191.49ZM16.45 2192.49L16.45 2209.44L18.45 2209.44L18.45 2192.49L16.45 2192.49ZM106.25 2428.46L106.25 2429.46L107.25 2429.46L107.25 2428.46L106.25 2428.46ZM2.00002 2428.46L1.00002 2428.46L1.00002 2429.46L2.00002 2429.46L2.00002 2428.46ZM2.00002 2411.21L2.00002 2410.21L1.00002 2410.21L1.00002 2411.21L2.00002 2411.21ZM80.15 2411.21L80.15 2412.21L80.51 2410.27L80.15 2411.21ZM2.00002 2381.06L1.00002 2381.06L1.00002 2381.74L1.64008 2381.99L2.00002 2381.06ZM2.00002 2366.06L1.63852 2365.12L1.00002 2365.37L1.00002 2366.06L2.00002 2366.06ZM80.15 2335.76L80.5115 2336.69L80.15 2334.76L80.15 2335.76ZM2.00002 2335.76L1.00002 2335.76L1.00002 2336.76L2.00002 2336.76L2.00002 2335.76ZM2.00002 2318.66L2.00002 2317.66L1.00002 2317.66L1.00002 2318.66L2.00002 2318.66ZM106.25 2318.66L107.25 2318.66L107.25 2317.66L106.25 2317.66L106.25 2318.66ZM106.25 2339.36L106.633 2340.28L107.25 2340.02L107.25 2339.36L106.25 2339.36ZM23 2373.86L22.6172 2372.93L20.3684 2373.86L22.6229 2374.78L23 2373.86ZM106.25 2407.76L107.25 2407.76L107.25 2407.08L106.627 2406.83L106.25 2407.76ZM106.25 2427.46L2.00002 2427.46L2.00002 2429.46L106.25 2429.46L106.25 2427.46ZM3.00002 2428.46L3.00002 2411.21L1.00002 2411.21L1.00002 2428.46L3.00002 2428.46ZM2.00002 2412.21L80.15 2412.21L80.15 2410.21L2.00002 2410.21L2.00002 2412.21ZM80.51 2410.27L2.35996 2380.12L1.64008 2381.99L79.7901 2412.14L80.51 2410.27ZM3.00002 2381.06L3.00002 2366.06L1.00002 2366.06L1.00002 2381.06L3.00002 2381.06ZM2.36151 2366.99L80.5115 2336.69L79.7885 2334.82L1.63852 2365.12L2.36151 2366.99ZM80.15 2334.76L2.00002 2334.76L2.00002 2336.76L80.15 2336.76L80.15 2334.76ZM3.00002 2335.76L3.00002 2318.66L1.00002 2318.66L1.00002 2335.76L3.00002 2335.76ZM2.00002 2319.66L106.25 2319.66L106.25 2317.66L2.00002 2317.66L2.00002 2319.66ZM105.25 2318.66L105.25 2339.36L107.25 2339.36L107.25 2318.66L105.25 2318.66ZM105.867 2338.43L22.6172 2372.93L23.3829 2374.78L106.633 2340.28L105.867 2338.43ZM22.6229 2374.78L105.873 2408.68L106.627 2406.83L23.3772 2372.93L22.6229 2374.78ZM105.25 2407.76L105.25 2428.46L107.25 2428.46L107.25 2407.76L105.25 2407.76ZM102.35 2524.63L101.486 2524.12L101.483 2524.13L102.35 2524.63ZM83 2543.38L82.5234 2542.5L82.5171 2542.5L82.5108 2542.51L83 2543.38ZM27.05 2543.38L27.5348 2542.5L27.5311 2542.5L27.05 2543.38ZM7.70001 2524.63L6.83583 2525.13L6.8378 2525.13L7.70001 2524.63ZM7.70001 2471.23L6.84061 2470.72L6.83681 2470.72L6.83311 2470.73L7.70001 2471.23ZM27.05 2452.48L26.5653 2451.6L26.5608 2451.61L27.05 2452.48ZM83 2452.48L82.5108 2453.35L82.5153 2453.35L83 2452.48ZM102.35 2471.23L103.217 2470.73L103.214 2470.72L102.35 2471.23ZM88.7 2479.93L87.8368 2480.43L88.7 2479.93ZM75.35 2467.48L75.8095 2466.59L75.7972 2466.58L75.35 2467.48ZM34.85 2467.48L34.4028 2466.58L34.3906 2466.59L34.85 2467.48ZM21.5 2479.93L20.6368 2479.42L21.5 2479.93ZM21.5 2515.93L22.3632 2515.42L22.359 2515.42L21.5 2515.93ZM34.85 2528.23L35.3095 2527.34L35.2972 2527.33L34.85 2528.23ZM75.35 2528.23L74.9028 2527.33L74.8906 2527.34L75.35 2528.23ZM88.7 2515.93L87.841 2515.42L87.8368 2515.42L88.7 2515.93ZM108.25 2498.08C108.25 2507.71 105.99 2516.39 101.486 2524.12L103.214 2525.13C107.91 2517.07 110.25 2508.04 110.25 2498.08L108.25 2498.08ZM101.483 2524.13C96.9777 2531.96 90.6645 2538.08 82.5234 2542.5L83.4766 2544.26C91.9355 2539.67 98.5224 2533.29 103.217 2525.13L101.483 2524.13ZM82.5108 2542.51C74.4756 2547.01 65.3473 2549.28 55.1 2549.28L55.1 2551.28C65.6528 2551.28 75.1244 2548.94 83.4893 2544.25L82.5108 2542.51ZM55.1 2549.28C44.8529 2549.28 35.6725 2547.01 27.5348 2542.5L26.5653 2544.25C35.0275 2548.94 44.5471 2551.28 55.1 2551.28L55.1 2549.28ZM27.5311 2542.5C19.4878 2538.09 13.1701 2531.96 8.56222 2524.12L6.8378 2525.13C11.6299 2533.29 18.2122 2539.67 26.5689 2544.25L27.5311 2542.5ZM8.56419 2524.12C4.05955 2516.39 1.80002 2507.71 1.80002 2498.08L-0.199984 2498.08C-0.199985 2508.04 2.14047 2517.07 6.83584 2525.13L8.56419 2524.12ZM1.80002 2498.08C1.80002 2488.34 4.06045 2479.56 8.56692 2471.73L6.83311 2470.73C2.13957 2478.89 -0.199984 2488.02 -0.199984 2498.08L1.80002 2498.08ZM8.55942 2471.74C13.1677 2463.99 19.4885 2457.87 27.5393 2453.35L26.5608 2451.61C18.2115 2456.29 11.6324 2462.66 6.84061 2470.72L8.55942 2471.74ZM27.5348 2453.35C35.6725 2448.84 44.8529 2446.58 55.1 2446.58L55.1 2444.58C44.5471 2444.58 35.0275 2446.91 26.5653 2451.6L27.5348 2453.35ZM55.1 2446.58C65.3473 2446.58 74.4756 2448.84 82.5108 2453.35L83.4893 2451.61C75.1244 2446.91 65.6528 2444.58 55.1 2444.58L55.1 2446.58ZM82.5153 2453.35C90.6639 2457.87 96.9801 2463.99 101.486 2471.73L103.214 2470.72C98.52 2462.66 91.9361 2456.29 83.4848 2451.6L82.5153 2453.35ZM101.483 2471.73C105.99 2479.56 108.25 2488.34 108.25 2498.08L110.25 2498.08C110.25 2488.02 107.91 2478.89 103.217 2470.73L101.483 2471.73ZM94.35 2498.08C94.35 2491.12 92.7622 2484.89 89.5632 2479.42L87.8368 2480.43C90.8378 2485.56 92.35 2491.44 92.35 2498.08L94.35 2498.08ZM89.5632 2479.42C86.3615 2473.95 81.7664 2469.67 75.8094 2466.59L74.8906 2468.37C80.5336 2471.28 84.8386 2475.31 87.8368 2480.43L89.5632 2479.42ZM75.7972 2466.58C69.8347 2463.6 62.9264 2462.13 55.1 2462.13L55.1 2464.13C62.6737 2464.13 69.2654 2465.55 74.9028 2468.37L75.7972 2466.58ZM55.1 2462.13C47.2737 2462.13 40.3654 2463.6 34.4028 2466.58L35.2972 2468.37C40.9347 2465.55 47.5264 2464.13 55.1 2464.13L55.1 2462.13ZM34.3906 2466.59C28.4336 2469.67 23.8386 2473.95 20.6368 2479.42L22.3632 2480.43C25.3615 2475.31 29.6664 2471.28 35.3094 2468.37L34.3906 2466.59ZM20.6368 2479.42C17.4378 2484.89 15.85 2491.12 15.85 2498.08L17.85 2498.08C17.85 2491.44 19.3622 2485.56 22.3632 2480.43L20.6368 2479.42ZM15.85 2498.08C15.85 2504.94 17.4391 2511.07 20.6411 2516.44L22.359 2515.42C19.3609 2510.39 17.85 2504.62 17.85 2498.08L15.85 2498.08ZM20.6368 2516.43C23.8404 2521.91 28.4395 2526.14 34.4028 2529.12L35.2972 2527.33C29.6605 2524.51 25.3596 2520.55 22.3632 2515.42L20.6368 2516.43ZM34.3906 2529.12C40.356 2532.2 47.2687 2533.73 55.1 2533.73L55.1 2531.73C47.5313 2531.73 40.9441 2530.25 35.3094 2527.34L34.3906 2529.12ZM55.1 2533.73C62.9313 2533.73 69.8441 2532.2 75.8094 2529.12L74.8906 2527.34C69.256 2530.25 62.6687 2531.73 55.1 2531.73L55.1 2533.73ZM75.7972 2529.12C81.7605 2526.14 86.3596 2521.91 89.5632 2516.43L87.8368 2515.42C84.8404 2520.55 80.5395 2524.51 74.9028 2527.33L75.7972 2529.12ZM89.559 2516.44C92.7609 2511.07 94.35 2504.94 94.35 2498.08L92.35 2498.08C92.35 2504.62 90.8391 2510.39 87.8411 2515.42L89.559 2516.44ZM2.00001 2623.18L1.47054 2622.34L1.00001 2622.63L1.00001 2623.18L2.00001 2623.18ZM44.3 2596.78L44.8295 2597.63L45.3 2597.34L45.3 2596.78L44.3 2596.78ZM44.3 2584.63L45.3 2584.63L45.3 2583.63L44.3 2583.63L44.3 2584.63ZM2.00001 2584.63L1.00001 2584.63L1.00001 2585.63L2.00001 2585.63L2.00001 2584.63ZM2.00001 2567.53L2.00001 2566.53L1.00001 2566.53L1.00001 2567.53L2.00001 2567.53ZM107.9 2567.53L108.9 2567.53L108.9 2566.53L107.9 2566.53L107.9 2567.53ZM99.05 2632.33L98.3256 2631.64L98.3201 2631.65L99.05 2632.33ZM55.25 2634.73L55.9135 2633.99L55.9055 2633.98L55.25 2634.73ZM45.05 2614.63L46.0358 2614.47L45.7813 2612.97L44.5082 2613.79L45.05 2614.63ZM2.00001 2642.38L1.00001 2642.38L1.00001 2644.22L2.5418 2643.22L2.00001 2642.38ZM56.45 2584.63L56.45 2583.63L55.45 2583.63L55.45 2584.63L56.45 2584.63ZM88.25 2619.13L87.5429 2618.43L87.5322 2618.44L87.5218 2618.45L88.25 2619.13ZM93.2 2584.63L94.2 2584.63L94.2 2583.63L93.2 2583.63L93.2 2584.63ZM2.52947 2624.03L44.8295 2597.63L43.7706 2595.94L1.47054 2622.34L2.52947 2624.03ZM45.3 2596.78L45.3 2584.63L43.3 2584.63L43.3 2596.78L45.3 2596.78ZM44.3 2583.63L2.00001 2583.63L2.00001 2585.63L44.3 2585.63L44.3 2583.63ZM3.00001 2584.63L3.00001 2567.53L1.00001 2567.53L1.00001 2584.63L3.00001 2584.63ZM2.00001 2568.53L107.9 2568.53L107.9 2566.53L2.00001 2566.53L2.00001 2568.53ZM106.9 2567.53L106.9 2604.88L108.9 2604.88L108.9 2567.53L106.9 2567.53ZM106.9 2604.88C106.9 2616.83 103.987 2625.7 98.3256 2631.64L99.7744 2633.02C105.913 2626.57 108.9 2617.13 108.9 2604.88L106.9 2604.88ZM98.3201 2631.65C92.6335 2637.72 85.1112 2640.78 75.65 2640.78L75.65 2642.78C85.5888 2642.78 93.6665 2639.55 99.7799 2633.02L98.3201 2631.65ZM75.65 2640.78C67.5501 2640.78 60.9998 2638.5 55.9135 2633.99L54.5865 2635.48C60.1002 2640.37 67.15 2642.78 75.65 2642.78L75.65 2640.78ZM55.9055 2633.98C50.8232 2629.57 47.5077 2623.1 46.0358 2614.47L44.0642 2614.8C45.5923 2623.77 49.0768 2630.7 54.5945 2635.49L55.9055 2633.98ZM44.5082 2613.79L1.45821 2641.54L2.5418 2643.22L45.5918 2615.47L44.5082 2613.79ZM3.00001 2642.38L3.00001 2623.18L1.00001 2623.18L1.00001 2642.38L3.00001 2642.38ZM55.45 2584.63L55.45 2603.53L57.45 2603.53L57.45 2584.63L55.45 2584.63ZM55.45 2603.53C55.45 2610.56 57.0002 2616.02 60.2758 2619.72C63.5722 2623.45 68.4617 2625.23 74.75 2625.23L74.75 2623.23C68.8383 2623.23 64.5778 2621.57 61.7742 2618.4C58.9499 2615.2 57.45 2610.31 57.45 2603.53L55.45 2603.53ZM74.75 2625.23C80.7544 2625.23 85.5453 2623.47 88.9782 2619.82L87.5218 2618.45C84.5547 2621.6 80.3457 2623.23 74.75 2623.23L74.75 2625.23ZM88.9571 2619.84C92.5228 2616.28 94.2 2610.76 94.2 2603.53L92.2 2603.53C92.2 2610.5 90.5773 2615.39 87.5429 2618.43L88.9571 2619.84ZM94.2 2603.53L94.2 2584.63L92.2 2584.63L92.2 2603.53L94.2 2603.53ZM93.2 2583.63L56.45 2583.63L56.45 2585.63L93.2 2585.63L93.2 2583.63ZM94.1 2674.28L95.1 2674.28L95.1 2673.28L94.1 2673.28L94.1 2674.28ZM62 2674.28L62 2673.28L61 2673.28L61 2674.28L62 2674.28ZM62 2713.28L62 2714.28L63 2714.28L63 2713.28L62 2713.28ZM48.8 2713.28L47.8 2713.28L47.8 2714.28L48.8 2714.28L48.8 2713.28ZM48.8 2674.28L49.8 2674.28L49.8 2673.28L48.8 2673.28L48.8 2674.28ZM15.95 2674.28L15.95 2673.28L14.95 2673.28L14.95 2674.28L15.95 2674.28ZM15.95 2717.78L15.95 2718.78L16.95 2718.78L16.95 2717.78L15.95 2717.78ZM2 2717.78L1 2717.78L1 2718.78L2 2718.78L2 2717.78ZM2.00001 2657.18L2.00001 2656.18L1.00001 2656.18L1.00001 2657.18L2.00001 2657.18ZM107.9 2657.18L108.9 2657.18L108.9 2656.18L107.9 2656.18L107.9 2657.18ZM107.9 2717.78L107.9 2718.78L108.9 2718.78L108.9 2717.78L107.9 2717.78ZM94.1 2717.78L93.1 2717.78L93.1 2718.78L94.1 2718.78L94.1 2717.78ZM94.1 2673.28L62 2673.28L62 2675.28L94.1 2675.28L94.1 2673.28ZM61 2674.28L61 2713.28L63 2713.28L63 2674.28L61 2674.28ZM62 2712.28L48.8 2712.28L48.8 2714.28L62 2714.28L62 2712.28ZM49.8 2713.28L49.8 2674.28L47.8 2674.28L47.8 2713.28L49.8 2713.28ZM48.8 2673.28L15.95 2673.28L15.95 2675.28L48.8 2675.28L48.8 2673.28ZM14.95 2674.28L14.95 2717.78L16.95 2717.78L16.95 2674.28L14.95 2674.28ZM15.95 2716.78L2 2716.78L2 2718.78L15.95 2718.78L15.95 2716.78ZM3 2717.78L3.00001 2657.18L1.00001 2657.18L1 2717.78L3 2717.78ZM2.00001 2658.18L107.9 2658.18L107.9 2656.18L2.00001 2656.18L2.00001 2658.18ZM106.9 2657.18L106.9 2717.78L108.9 2717.78L108.9 2657.18L106.9 2657.18ZM107.9 2716.78L94.1 2716.78L94.1 2718.78L107.9 2718.78L107.9 2716.78ZM95.1 2717.78L95.1 2674.28L93.1 2674.28L93.1 2717.78L95.1 2717.78ZM20.9 2783.04L20.9 2784.04L21.9 2784.04L21.9 2783.04L20.9 2783.04ZM2 2783.04L1 2783.04L1 2784.04L2 2784.04L2 2783.04ZM2 2763.69L2 2762.69L1 2762.69L1 2763.69L2 2763.69ZM20.9 2763.69L21.9 2763.69L21.9 2762.69L20.9 2762.69L20.9 2763.69ZM20.9 2782.04L2 2782.04L2 2784.04L20.9 2784.04L20.9 2782.04ZM3 2783.04L3 2763.69L1 2763.69L1 2783.04L3 2783.04ZM2 2764.69L20.9 2764.69L20.9 2762.69L2 2762.69L2 2764.69ZM19.9 2763.69L19.9 2783.04L21.9 2783.04L21.9 2763.69L19.9 2763.69ZM20.9 2811.6L20.9 2812.6L21.9 2812.6L21.9 2811.6L20.9 2811.6ZM2 2811.6L0.999999 2811.6L0.999999 2812.6L2 2812.6L2 2811.6ZM2 2792.25L2 2791.25L1 2791.25L1 2792.25L2 2792.25ZM20.9 2792.25L21.9 2792.25L21.9 2791.25L20.9 2791.25L20.9 2792.25ZM20.9 2810.6L2 2810.6L2 2812.6L20.9 2812.6L20.9 2810.6ZM3 2811.6L3 2792.25L1 2792.25L0.999999 2811.6L3 2811.6ZM2 2793.25L20.9 2793.25L20.9 2791.25L2 2791.25L2 2793.25ZM19.9 2792.25L19.9 2811.6L21.9 2811.6L21.9 2792.25L19.9 2792.25ZM20.9 2840.16L20.9 2841.16L21.9 2841.16L21.9 2840.16L20.9 2840.16ZM2 2840.16L0.999998 2840.16L0.999998 2841.16L2 2841.16L2 2840.16ZM2 2820.81L2 2819.81L0.999999 2819.81L0.999999 2820.81L2 2820.81ZM20.9 2820.81L21.9 2820.81L21.9 2819.81L20.9 2819.81L20.9 2820.81ZM20.9 2839.16L2 2839.16L2 2841.16L20.9 2841.16L20.9 2839.16ZM3 2840.16L3 2820.81L0.999999 2820.81L0.999998 2840.16L3 2840.16ZM2 2821.81L20.9 2821.81L20.9 2819.81L2 2819.81L2 2821.81ZM19.9 2820.81L19.9 2840.16L21.9 2840.16L21.9 2820.81L19.9 2820.81Z" fill="black"/>
</svg>
